<?xml version="1.0" encoding="utf-8"?>
<!-- Generator: Adobe Illustrator 24.1.1, SVG Export Plug-In . SVG Version: 6.00 Build 0)  -->
<svg version="1.1" id="Layer_1" xmlns="http://www.w3.org/2000/svg" xmlns:xlink="http://www.w3.org/1999/xlink" x="0px" y="0px"
	 viewBox="0 0 512 512" style="enable-background:new 0 0 512 512;" xml:space="preserve">
<style type="text/css">
	.st0{fill:#00FF7E;}
</style>
<path class="st0" d="M316,346c-5.52,0-10,4.48-10,10s4.48,10,10,10s10-4.48,10-10S321.52,346,316,346z"/>
<path class="st0" d="M462,0H50C22.43,0,0,22.43,0,50v306c0,27.57,22.43,50,50,50h156v46h-10c-13.35,0-25.9,5.2-35.35,14.65
	C151.2,476.1,146,488.65,146,502c0,5.52,4.48,10,10,10h200c5.52,0,10-4.48,10-10c0-27.57-22.43-50-50-50h-10v-46h156
	c27.57,0,50-22.43,50-50V50C512,22.43,489.57,0,462,0z M50,20h412c16.54,0,30,13.46,30,30v256h-46V76c0-5.52-4.48-10-10-10h-80
	c-5.52,0-10,4.48-10,10v230h-50.05c-0.11-10.34-0.38-20.54-0.8-30.43c-1.75-40.73-5.74-68.01-7.81-80.01
	c20.63-15.19,26.27-43.35,13.65-65.22l-34.66-60.03c-1.79-3.09-5.09-5-8.66-5c-3.57,0-6.88,1.91-8.66,5l-34.68,60.04
	c-11.89,20.63-7.68,47.34,11,63.11c-2.16,11.96-6.53,40.22-8.43,82.1c-0.45,10-0.73,20.2-0.84,30.45H166V156
	c0-1.59-0.38-3.03-0.99-4.32c-0.03-0.05-0.04-0.11-0.07-0.16l-40-80c-1.7-3.39-5.16-5.53-8.95-5.53s-7.25,2.14-8.95,5.53l-40,80
	c-0.02,0.05-0.04,0.11-0.06,0.16c-0.63,1.3-0.99,2.77-0.99,4.32v150H20V50C20,33.46,33.46,20,50,20z M366,306V86h60v20h-10
	c-5.52,0-10,4.48-10,10s4.48,10,10,10h10v30h-10c-5.52,0-10,4.48-10,10s4.48,10,10,10h10v30h-10c-5.52,0-10,4.48-10,10
	s4.48,10,10,10h10v40h-10c-5.52,0-10,4.48-10,10s4.48,10,10,10h10v20H366z M257.66,205.31c3.63,0,7.25-0.42,10.79-1.2
	c1.86,11.89,4.58,32.94,6.2,61.89h-37.22c1.69-28.93,4.55-50.3,6.52-62.6C248.37,204.66,252.98,205.31,257.66,205.31z
	 M257.66,185.31c-22.86,0-37.59-24.88-26.01-44.97l26.01-45.03l26,45.03C295.2,160.35,280.66,185.31,257.66,185.31z M236.5,286
	h39.02c0.21,6.57,0.36,13.25,0.43,20h-39.89C236.13,299.3,236.28,292.61,236.5,286z M126,306V166h20v140H126z M86,306V166h20v140H86
	z M92.18,146L116,98.36L139.82,146H92.18z M344.29,492H167.7c1.47-4.17,3.87-7.99,7.09-11.21c5.67-5.67,13.2-8.79,21.21-8.79h120
	C329.04,472,340.16,480.36,344.29,492z M286,452h-60v-46h60V452z M462,386H50c-16.54,0-30-13.46-30-30v-30h472v30
	C492,372.54,478.54,386,462,386z"/>
<path class="st0" d="M276,346h-60c-5.52,0-10,4.48-10,10s4.48,10,10,10h60c5.52,0,10-4.48,10-10S281.52,346,276,346z"/>
</svg>
