<?xml version="1.0" encoding="utf-8"?>
<!-- Generator: Adobe Illustrator 24.1.1, SVG Export Plug-In . SVG Version: 6.00 Build 0)  -->
<svg version="1.1" id="Layer_1" xmlns="http://www.w3.org/2000/svg" xmlns:xlink="http://www.w3.org/1999/xlink" x="0px" y="0px"
	 viewBox="0 0 511 511" style="enable-background:new 0 0 511 511;" xml:space="preserve">
<style type="text/css">
	.st0{fill:#00FF7E;}
</style>
<path class="st0" d="M58.85,187.18c1.46,1.46,3.37,2.19,5.29,2.19s3.83-0.73,5.29-2.19c2.92-2.92,2.92-7.66,0-10.58l-18.16-18.16
	l18.16-18.16c2.92-2.92,2.92-7.66,0-10.58c-2.92-2.92-7.66-2.92-10.58,0L35.4,153.16c-1.4,1.4-2.19,3.31-2.19,5.29
	c0,1.98,0.79,3.89,2.19,5.29L58.85,187.18z"/>
<path class="st0" d="M133.06,158.44L114.9,176.6c-2.92,2.92-2.92,7.66,0,10.58c1.46,1.46,3.37,2.19,5.29,2.19s3.83-0.73,5.29-2.19
	l23.45-23.45c2.92-2.92,2.92-7.66,0-10.57l-23.45-23.45c-2.92-2.92-7.65-2.92-10.57,0c-2.92,2.92-2.92,7.66,0,10.58L133.06,158.44z"
	/>
<path class="st0" d="M81.01,188.85c0.9,0.35,1.82,0.52,2.73,0.52c2.99,0,5.81-1.8,6.96-4.74l18.42-46.9
	c1.51-3.84-0.38-8.18-4.23-9.7c-3.84-1.51-8.18,0.38-9.69,4.23l-18.42,46.9C75.28,183,77.17,187.34,81.01,188.85z"/>
<path class="st0" d="M44.92,233.25H95.3c4.13,0,7.48-3.35,7.48-7.48c0-4.13-3.35-7.48-7.48-7.48H44.92c-4.13,0-7.48,3.35-7.48,7.48
	C37.44,229.9,40.79,233.25,44.92,233.25z"/>
<path class="st0" d="M211.34,218.29h-88.58c-4.13,0-7.48,3.35-7.48,7.48c0,4.13,3.35,7.48,7.48,7.48h88.58
	c4.13,0,7.48-3.35,7.48-7.48C218.82,221.64,215.47,218.29,211.34,218.29z"/>
<path class="st0" d="M44.92,264.79h21.46c4.13,0,7.48-3.35,7.48-7.48c0-4.13-3.35-7.48-7.48-7.48H44.92c-4.13,0-7.48,3.35-7.48,7.48
	C37.44,261.44,40.79,264.79,44.92,264.79z"/>
<path class="st0" d="M183.98,249.83c-4.13,0-7.48,3.35-7.48,7.48c0,4.13,3.35,7.48,7.48,7.48h13.07c4.13,0,7.48-3.35,7.48-7.48
	c0-4.13-3.35-7.48-7.48-7.48H183.98z"/>
<path class="st0" d="M164.3,257.31c0-4.13-3.35-7.48-7.48-7.48H92.62c-4.13,0-7.48,3.35-7.48,7.48c0,4.13,3.35,7.48,7.48,7.48h64.19
	C160.95,264.79,164.3,261.44,164.3,257.31z"/>
<path class="st0" d="M213.29,257.31c0,4.13,3.35,7.48,7.48,7.48h24.48c4.13,0,7.48-3.35,7.48-7.48c0-4.13-3.35-7.48-7.48-7.48
	h-24.48C216.64,249.83,213.29,253.18,213.29,257.31z"/>
<path class="st0" d="M172.56,164.44h25.82c4.13,0,7.48-3.35,7.48-7.48c0-4.13-3.35-7.48-7.48-7.48h-25.82
	c-4.13,0-7.48,3.35-7.48,7.48C165.08,161.09,168.42,164.44,172.56,164.44z"/>
<path class="st0" d="M227.3,164.44h157.55c4.13,0,7.48-3.35,7.48-7.48c0-4.13-3.35-7.48-7.48-7.48H227.3
	c-4.13,0-7.48,3.35-7.48,7.48C219.82,161.09,223.17,164.44,227.3,164.44z"/>
<path class="st0" d="M360.92,182.39H297.1c-4.13,0-7.48,3.35-7.48,7.48c0,4.13,3.35,7.48,7.48,7.48h63.82
	c4.13,0,7.48-3.35,7.48-7.48C368.39,185.74,365.04,182.39,360.92,182.39z"/>
<path class="st0" d="M273.17,182.39h-21.94c-4.13,0-7.48,3.35-7.48,7.48c0,4.13,3.35,7.48,7.48,7.48h21.94
	c4.13,0,7.48-3.35,7.48-7.48C280.64,185.74,277.3,182.39,273.17,182.39z"/>
<path class="st0" d="M172.56,197.35h53.74c4.13,0,7.48-3.35,7.48-7.48c0-4.13-3.35-7.48-7.48-7.48h-53.74
	c-4.13,0-7.48,3.35-7.48,7.48C165.08,194,168.42,197.35,172.56,197.35z"/>
<path class="st0" d="M156.91,281.11h-50.38c-4.13,0-7.48,3.35-7.48,7.48c0,4.13,3.35,7.48,7.48,7.48h50.38
	c4.13,0,7.48-3.35,7.48-7.48C164.39,284.46,161.04,281.11,156.91,281.11z"/>
<path class="st0" d="M83.63,281.11H44.92c-4.13,0-7.48,3.35-7.48,7.48c0,4.13,3.35,7.48,7.48,7.48h38.71c4.13,0,7.48-3.35,7.48-7.48
	C91.1,284.46,87.76,281.11,83.63,281.11z"/>
<path class="st0" d="M248.24,281.11h-65.81c-4.13,0-7.48,3.35-7.48,7.48c0,4.13,3.35,7.48,7.48,7.48h65.81
	c4.13,0,7.48-3.35,7.48-7.48C255.72,284.46,252.37,281.11,248.24,281.11z"/>
<path class="st0" d="M337.24,242.69h-35.99c-4.13,0-7.48,3.35-7.48,7.48c0,4.13,3.35,7.48,7.48,7.48h35.99
	c4.13,0,7.48-3.35,7.48-7.48C344.72,246.04,341.37,242.69,337.24,242.69z"/>
<path class="st0" d="M399.69,257.65h50.8c4.13,0,7.48-3.35,7.48-7.48c0-4.13-3.35-7.48-7.48-7.48h-50.8c-4.13,0-7.48,3.35-7.48,7.48
	C392.21,254.3,395.56,257.65,399.69,257.65z"/>
<path class="st0" d="M374.28,242.69h-11.64c-4.13,0-7.48,3.35-7.48,7.48c0,4.13,3.35,7.48,7.48,7.48h11.64
	c4.13,0,7.48-3.35,7.48-7.48C381.76,246.04,378.42,242.69,374.28,242.69z"/>
<path class="st0" d="M301.25,339.15h35.99c4.13,0,7.48-3.35,7.48-7.48c0-4.13-3.35-7.48-7.48-7.48h-35.99
	c-4.13,0-7.48,3.35-7.48,7.48C293.77,335.8,297.12,339.15,301.25,339.15z"/>
<path class="st0" d="M399.69,339.15h50.8c4.13,0,7.48-3.35,7.48-7.48c0-4.13-3.35-7.48-7.48-7.48h-50.8c-4.13,0-7.48,3.35-7.48,7.48
	C392.21,335.8,395.56,339.15,399.69,339.15z"/>
<path class="st0" d="M362.64,339.15h11.64c4.13,0,7.48-3.35,7.48-7.48c0-4.13-3.35-7.48-7.48-7.48h-11.64
	c-4.13,0-7.48,3.35-7.48,7.48C355.17,335.8,358.51,339.15,362.64,339.15z"/>
<path class="st0" d="M337.24,405.69h-35.99c-4.13,0-7.48,3.35-7.48,7.48c0,4.13,3.35,7.48,7.48,7.48h35.99
	c4.13,0,7.48-3.35,7.48-7.48C344.72,409.04,341.37,405.69,337.24,405.69z"/>
<path class="st0" d="M450.49,405.69h-50.8c-4.13,0-7.48,3.35-7.48,7.48c0,4.13,3.35,7.48,7.48,7.48h50.8c4.13,0,7.48-3.35,7.48-7.48
	C457.97,409.04,454.62,405.69,450.49,405.69z"/>
<path class="st0" d="M374.28,405.69h-11.64c-4.13,0-7.48,3.35-7.48,7.48c0,4.13,3.35,7.48,7.48,7.48h11.64
	c4.13,0,7.48-3.35,7.48-7.48C381.76,409.04,378.42,405.69,374.28,405.69z"/>
<path class="st0" d="M478.09,1H32.92C14.77,1,0,15.76,0,33.91v361.86c0,18.15,14.77,32.91,32.92,32.91h28.14
	c4.13,0,7.48-3.35,7.48-7.48c0-4.13-3.35-7.48-7.48-7.48H32.92c-9.9,0-17.96-8.05-17.96-17.96V367.4h272.46v12.89h-5.93
	c-8.11,0-14.71,6.6-14.71,14.71v18.73H106.53c-4.13,0-7.48,3.35-7.48,7.48c0,4.13,3.35,7.48,7.48,7.48h71.91v26.82h-22.58
	c-15.06,0-27.32,12.26-27.32,27.32v16.16c0,6.87,5.59,12.46,12.46,12.46h228.43c6.87,0,12.46-5.59,12.46-12.46v-16.16
	c0-15.06-12.25-27.32-27.32-27.32H332v-9.45h138.26c8.11,0,14.71-6.6,14.71-14.71v-3.52c14.58-3.38,25.47-16.46,25.47-32.05
	L511,33.91C511,15.76,496.24,1,478.09,1z M281.74,349.6v-35.85H470v35.85H281.74z M302.38,298.79v-15.73h146.99v15.73H302.38z
	 M449.36,364.55v15.74H302.38v-15.74H449.36z M193.39,428.69h73.39v2.66c0,8.11,6.6,14.71,14.71,14.71h35.55v9.45H193.39V428.69z
	 M354.58,470.47c6.81,0,12.36,5.54,12.36,12.36v13.66H143.49v-13.66c0-6.81,5.55-12.36,12.36-12.36H354.58z M470,431.09H281.74
	v-35.84H470V431.09z M495.48,395.77c0,7.24-4.32,13.49-10.51,16.32V395c0-8.11-6.6-14.71-14.71-14.71h-5.93V367.4h31.15V395.77z
	 M495.48,352.45h-10.76c0.15-0.85,0.25-38.95,0.25-38.95c0-8.11-6.6-14.71-14.71-14.71h-5.93v-15.73h5.93
	c8.11,0,14.71-6.6,14.71-14.71V232c0-8.11-6.6-14.71-14.71-14.71h-42.24c-4.13,0-7.48,3.35-7.48,7.48c0,4.13,3.35,7.48,7.48,7.48
	H470v35.85H281.74v-35.85h99.73c4.13,0,7.48-3.35,7.48-7.48c0-4.13-3.35-7.48-7.48-7.48h-99.98c-8.11,0-14.71,6.6-14.71,14.71v36.35
	c0,8.11,6.6,14.71,14.71,14.71h5.93v15.73h-5.93c-8.11,0-14.71,6.6-14.71,14.71c0,0,0.09,38.1,0.25,38.95H14.96V102.73h480.52
	V352.45z M495.48,87.77H15.51V33.91c0-9.9,8.05-17.95,17.96-17.95h444.05c9.9,0,17.96,8.05,17.96,17.96V87.77z"/>
<path class="st0" d="M55.15,29.7c-12.1,0-21.95,9.84-21.95,21.95S43.05,73.6,55.15,73.6S77.1,63.75,77.1,51.65
	S67.26,29.7,55.15,29.7z M55.15,58.64c-3.85,0-6.99-3.13-6.99-6.99c0-3.85,3.14-6.99,6.99-6.99c3.86,0,6.99,3.14,6.99,6.99
	C62.14,55.5,59.01,58.64,55.15,58.64z"/>
<path class="st0" d="M111.03,29.7c-12.1,0-21.95,9.84-21.95,21.95s9.85,21.95,21.95,21.95s21.95-9.85,21.95-21.95
	S123.13,29.7,111.03,29.7z M111.03,58.64c-3.86,0-6.99-3.13-6.99-6.99c0-3.85,3.13-6.99,6.99-6.99c3.85,0,6.99,3.14,6.99,6.99
	C118.02,55.5,114.89,58.64,111.03,58.64z"/>
<path class="st0" d="M166.91,29.7c-12.1,0-21.95,9.84-21.95,21.95s9.84,21.95,21.95,21.95s21.95-9.85,21.95-21.95
	S179.01,29.7,166.91,29.7z M166.91,58.64c-3.85,0-6.99-3.13-6.99-6.99c0-3.85,3.14-6.99,6.99-6.99c3.86,0,6.99,3.14,6.99,6.99
	C173.9,55.5,170.76,58.64,166.91,58.64z"/>
</svg>
