<?xml version="1.0" encoding="utf-8"?>
<!-- Generator: Adobe Illustrator 24.1.1, SVG Export Plug-In . SVG Version: 6.00 Build 0)  -->
<svg version="1.1" id="Layer_1" xmlns="http://www.w3.org/2000/svg" xmlns:xlink="http://www.w3.org/1999/xlink" x="0px" y="0px"
	 viewBox="0 0 512 512" style="enable-background:new 0 0 512 512;" xml:space="preserve">
<style type="text/css">
	.st0{fill:#00FF7E;}
</style>
<path class="st0" d="M490.92,129.08L265.36,2.54c-6.04-3.39-13.54-3.39-19.57,0L20.22,129.08C13.91,132.61,10,139.3,10,146.52
	c0,7.23,3.91,13.91,10.21,17.45l58.35,32.73v110.32c0,6.67,3.3,12.87,8.83,16.59l11.93,8.03c-3.21,5.57-5.05,12.02-5.05,18.89V502
	c0,5.52,4.48,10,10,10h56c5.52,0,10-4.48,10-10V379.41l74.13,49.9c3.39,2.29,7.28,3.43,11.17,3.43s7.78-1.14,11.17-3.43
	l157.01-105.7c5.53-3.72,8.83-9.93,8.83-16.59V196.7l58.35-32.73c6.3-3.54,10.21-10.22,10.21-17.45
	C501.14,139.3,497.23,132.61,490.92,129.08z M98.56,207.92l23.71,13.3v92.65c-2.97,0.81-5.79,1.97-8.43,3.44l-15.29-10.29V207.92z
	 M150.28,360.57v0.12v16.18h-36v-26.33c0-9.93,8.08-18,18-18s18,8.08,18,18V360.57z M114.27,492v-95.14h36V492H114.27z
	 M412.57,307.02l-147,98.96v-41.46c0-5.52-4.48-10-10-10s-10,4.48-10,10v41.46l-75.29-50.69v-4.77c0-17.49-11.88-32.25-28-36.66
	v-81.43l103.51,58.07c3.02,1.69,6.4,2.54,9.79,2.54c3.38,0,6.77-0.85,9.79-2.54l147.22-82.59V307.02z M418.72,181.54
	c-0.69,0.29-1.34,0.66-1.94,1.09l-161.21,90.43l-102.48-57.48l76.58-43.08c6.97,5,15.96,8.03,25.78,8.03c22.05,0,40-15.25,40-34
	c0-18.75-17.95-34-40-34c-22.06,0-40,15.25-40,34c0,3.49,0.63,6.86,1.78,10.03l-84.56,47.57l-38.31-21.49
	c-0.6-0.43-1.25-0.8-1.94-1.09L30,146.52L255.57,19.98l225.57,126.54L418.72,181.54z M235.45,146.52c0-7.59,9.16-14,20-14
	c10.84,0,20,6.41,20,14s-9.16,14-20,14C244.61,160.52,235.45,154.11,235.45,146.52z"/>
<path class="st0" d="M255.57,314.54c-2.63,0-5.21,1.06-7.07,2.92c-1.86,1.87-2.93,4.44-2.93,7.07c0,2.64,1.07,5.21,2.93,7.08
	c1.86,1.86,4.44,2.92,7.07,2.92c2.63,0,5.21-1.06,7.07-2.92c1.86-1.87,2.93-4.44,2.93-7.08c0-2.63-1.07-5.21-2.93-7.07
	C260.78,315.59,258.2,314.54,255.57,314.54z"/>
</svg>
