<?xml version="1.0" encoding="utf-8"?>
<!-- Generator: Adobe Illustrator 24.1.2, SVG Export Plug-In . SVG Version: 6.00 Build 0)  -->
<svg version="1.1" xmlns="http://www.w3.org/2000/svg" xmlns:xlink="http://www.w3.org/1999/xlink" x="0px" y="0px"
	 viewBox="0 0 243.32 254.73" style="enable-background:new 0 0 243.32 254.73;" xml:space="preserve">
<style type="text/css">
	.st0{enable-background:new    ;}
	.st1{fill:#03A060;}
	.st2{fill:#066153;}
	.st3{fill:#075D52;}
	.st4{fill:#03A461;}
	.st5{fill:#075951;}
	.st6{fill:#03A861;}
	.st7{fill:#03AC62;}
	.st8{fill:#075450;}
	.st9{fill:#03B063;}
	.st10{fill:#07514F;}
	.st11{fill:#02B464;}
	.st12{fill:#084D4E;}
	.st13{fill:#08484E;}
	.st14{fill:#02B865;}
	.st15{fill:#08454D;}
	.st16{fill:#02BC66;}
	.st17{fill:#02C067;}
	.st18{fill:#08414C;}
	.st19{fill:#093D4B;}
	.st20{fill:#01C467;}
	.st21{fill:#01C868;}
	.st22{fill:#09394A;}
	.st23{fill:#093549;}
	.st24{fill:#01CC69;}
	.st25{fill:#093148;}
	.st26{fill:#01D06A;}
	.st27{fill:#092D48;}
	.st28{fill:#00D46B;}
	.st29{fill:#092947;}
	.st30{fill:#00D76C;}
	.st31{fill:#092546;}
	.st32{fill:#00DC6D;}
</style>
<g id="Layer_1">
</g>
<g id="Layer_2">
	<g>
		<g>
			<g class="st0">
				<g>
					<polygon class="st1" points="125.81,159.98 67.49,193.87 50.73,184.19 61.14,151.74 27.94,171.03 11.38,161.47 69.7,127.58 
						86.3,137.17 75.77,169.83 109.21,150.39 					"/>
				</g>
				<g>
					<path class="st2" d="M109.21,149.58l18.02,10.4L67.5,194.69l-17.85-10.31l9.91-30.91l-31.62,18.38L9.97,161.47l59.73-34.71
						l17.69,10.21l-10.03,31.12L109.21,149.58z M67.49,193.87l58.32-33.89l-16.6-9.58l-33.45,19.44l10.53-32.67l-16.6-9.58
						l-58.32,33.89l16.56,9.56l33.2-19.29l-10.41,32.45L67.49,193.87"/>
				</g>
				<g>
					<path class="st2" d="M165.69,203.19c-2.63,2.66-6.02,5.2-10.06,7.55c-6.32,3.68-12.04,6.15-17,7.34
						c-4.97,1.19-10.01,1.74-14.97,1.62c-4.98-0.12-9.41-0.82-13.19-2.08c-5.11-1.71-9.37-3.54-12.65-5.43l-27.63-15.95l59.73-34.71
						l27.63,15.95c5.4,3.12,9.09,6.11,10.97,8.88c1.88,2.78,2.55,5.65,2,8.5C169.95,197.72,168.32,200.52,165.69,203.19z
						 M138.24,217.55c4.84-1.17,10.45-3.59,16.68-7.22c3.98-2.31,7.3-4.81,9.9-7.42c2.58-2.61,4.16-5.33,4.7-8.11
						c0.54-2.76-0.11-5.53-1.94-8.22c-1.82-2.71-5.44-5.63-10.74-8.68l-26.92-15.54l-58.32,33.89l26.92,15.54
						c3.22,1.86,7.4,3.66,12.45,5.33c3.64,1.22,7.92,1.9,12.73,2.01C128.51,219.24,133.41,218.71,138.24,217.55"/>
				</g>
				<g>
					<path class="st2" d="M207.48,242.52c-1.04,2.46-3.23,4.68-6.5,6.58c-3.84,2.23-8.51,3.69-13.88,4.34
						c-5.37,0.65-10.89,0.35-16.39-0.89c-5.47-1.23-11.18-3.55-16.95-6.89c-10.16-5.86-15.32-11.14-15.34-15.69
						c-0.03-4.55,2.75-8.77,8.25-12.57l0.33-0.23l19.29,9.83l-0.29,0.22c-2.37,1.81-3.73,3.47-4.03,4.94
						c-0.48,2.37,0.99,4.57,4.37,6.52c2.52,1.46,5.07,2.24,7.57,2.35c2.51,0.1,4.47-0.28,5.99-1.16c1.44-0.84,2.07-1.93,1.93-3.34
						c-0.14-1.41-2.12-3.86-5.9-7.28c-6.26-5.66-9.67-10.45-10.14-14.25c-0.48-3.8,1.67-7.11,6.35-9.84
						c3.09-1.8,6.96-2.99,11.51-3.54c4.53-0.56,9.46-0.25,14.62,0.93c5.14,1.16,10.9,3.57,17.1,7.15c7.63,4.4,12.1,8.66,13.3,12.63
						c1.21,4-0.94,8.07-6.37,12.11l-0.32,0.24l-19.04-9.78l0.25-0.21c2.12-1.75,3.06-3.38,2.81-4.85c-0.25-1.47-1.65-2.96-4.14-4.4
						c-2.04-1.18-4.01-1.82-5.87-1.92c-1.84-0.09-3.31,0.2-4.5,0.88c-0.82,0.48-1.16,1.14-1.06,2.03c0.08,0.63,0.81,1.96,3.91,4.68
						c6.3,5.62,10.37,10.02,12.08,13.05C208.17,237.25,208.52,240.05,207.48,242.52z M186.9,252.87c5.18-0.63,9.68-2.03,13.38-4.18
						c3.14-1.82,5.24-3.95,6.24-6.31c0.99-2.36,0.65-5.06-1.03-8.02c-1.69-2.99-5.72-7.34-11.97-12.92
						c-2.58-2.27-3.95-3.93-4.07-4.96c-0.13-1.07,0.31-1.87,1.34-2.47c1.39-0.81,3.17-1.16,5.3-1.05c2.09,0.11,4.27,0.81,6.48,2.08
						c2.67,1.54,4.16,3.14,4.44,4.75c0.26,1.56-0.66,3.24-2.74,5.02l17.58,9.03c5.01-3.83,6.98-7.66,5.85-11.41
						c-1.16-3.85-5.54-8-13.02-12.32c-6.11-3.53-11.74-5.89-16.75-7.03c-4.98-1.13-9.72-1.43-14.06-0.9
						c-4.35,0.53-8.05,1.67-11,3.38c-4.48,2.6-6.52,5.76-6.06,9.39c0.47,3.69,3.82,8.39,9.98,13.98c3.93,3.55,5.91,6.03,6.06,7.55
						c0.15,1.56-0.6,2.83-2.23,3.78c-1.71,0.99-3.99,1.44-6.76,1.33c-2.75-0.12-5.51-0.96-8.21-2.52c-3.61-2.08-5.18-4.44-4.67-7
						c0.32-1.52,1.64-3.2,3.95-5L147.11,218c-5.13,3.63-7.71,7.65-7.69,11.96c0.02,4.39,5.09,9.54,15.05,15.29
						c5.68,3.28,11.27,5.55,16.61,6.75C176.39,253.21,181.72,253.5,186.9,252.87"/>
				</g>
				<g>
					<path class="st1" d="M214.68,210.12c7.48,4.32,11.86,8.46,13.02,12.32c1.12,3.75-0.85,7.59-5.85,11.41l-17.58-9.03
						c2.08-1.78,3-3.47,2.74-5.02c-0.28-1.61-1.77-3.21-4.44-4.75c-2.21-1.28-4.39-1.98-6.48-2.08c-2.13-0.11-3.91,0.24-5.3,1.05
						c-1.03,0.6-1.47,1.41-1.34,2.47c0.12,1.02,1.49,2.69,4.07,4.96c6.25,5.58,10.28,9.93,11.97,12.92
						c1.68,2.96,2.02,5.66,1.03,8.02c-1,2.36-3.1,4.49-6.24,6.31c-3.7,2.15-8.2,3.55-13.38,4.18c-5.18,0.63-10.5,0.34-15.82-0.87
						c-5.34-1.2-10.93-3.48-16.61-6.75c-9.96-5.75-15.02-10.89-15.05-15.29c-0.02-4.31,2.56-8.33,7.69-11.96l17.81,9.08
						c-2.31,1.81-3.63,3.49-3.95,5c-0.51,2.56,1.06,4.92,4.67,7c2.7,1.56,5.46,2.4,8.21,2.52c2.78,0.11,5.06-0.34,6.76-1.33
						c1.63-0.95,2.37-2.22,2.23-3.78c-0.15-1.53-2.13-4-6.06-7.55c-6.16-5.58-9.51-10.28-9.98-13.98c-0.45-3.63,1.58-6.79,6.06-9.39
						c2.95-1.71,6.65-2.85,11-3.38c4.34-0.53,9.08-0.23,14.06,0.9C202.94,204.23,208.57,206.59,214.68,210.12z"/>
				</g>
			</g>
			<g>
				<path class="st1" d="M164.82,202.9c-2.59,2.62-5.92,5.11-9.9,7.42c-6.24,3.62-11.85,6.05-16.68,7.22
					c-4.83,1.16-9.72,1.69-14.55,1.58c-4.81-0.11-9.09-0.79-12.73-2.01c-5.04-1.68-9.22-3.47-12.45-5.33l-26.92-15.54l58.32-33.89
					l26.92,15.54c5.3,3.06,8.92,5.98,10.74,8.68c1.82,2.7,2.47,5.46,1.94,8.22C168.98,197.57,167.39,200.3,164.82,202.9z
					 M125.03,205.53c3.08-0.71,7.04-2.47,11.79-5.23c6.31-3.67,9.64-6.84,9.91-9.43c0.27-2.6-2.05-5.34-6.89-8.13l-4.94-2.85
					l-32.96,19.15l4.85,2.8c3.93,2.27,7.1,3.6,9.66,4.06C119.02,206.37,121.91,206.25,125.03,205.53"/>
			</g>
			<g>
				<path class="st2" d="M139.84,182.74c4.84,2.79,7.16,5.53,6.89,8.13c-0.27,2.59-3.6,5.76-9.91,9.43
					c-4.75,2.76-8.72,4.52-11.79,5.23c-3.12,0.72-6.01,0.84-8.57,0.38c-2.57-0.46-5.73-1.79-9.66-4.06l-4.85-2.8l32.96-19.15
					L139.84,182.74z M124.66,204.99c2.95-0.68,6.8-2.39,11.46-5.1c6.13-3.56,9.37-6.61,9.62-9.05c0.24-2.43-1.98-5.02-6.6-7.69
					l-4.23-2.44l-31.55,18.34l4.14,2.39c3.76,2.17,6.88,3.49,9.25,3.91C119.1,205.78,121.76,205.66,124.66,204.99"/>
			</g>
		</g>
	</g>
	<g>
		<g>
			<g class="st0">
				<g>
					<path class="st3" d="M109.21,142.27l18.02,10.4L67.5,187.39l-17.85-10.31l9.91-30.91l-31.62,18.38L9.96,154.17l59.73-34.71
						l17.69,10.21l-10.04,31.12L109.21,142.27z M67.49,186.57l58.33-33.9l-16.6-9.58l-33.45,19.44l10.53-32.67l-16.6-9.58
						l-58.33,33.9l16.56,9.56l33.2-19.29l-10.41,32.45L67.49,186.57"/>
				</g>
				<g>
					<polygon class="st4" points="125.82,152.67 67.49,186.57 50.73,176.89 61.13,144.44 27.93,163.73 11.38,154.17 69.7,120.28 
						86.3,129.86 75.77,162.53 109.22,143.09 					"/>
				</g>
				<g>
					<path class="st3" d="M165.68,195.89c-2.63,2.66-6.02,5.2-10.06,7.55c-6.32,3.68-12.04,6.15-17,7.34
						c-4.97,1.19-10.01,1.74-14.97,1.62c-4.98-0.12-9.41-0.82-13.19-2.09c-5.11-1.7-9.37-3.53-12.66-5.43l-27.63-15.95l59.73-34.71
						l27.63,15.95c5.4,3.12,9.09,6.11,10.96,8.89c1.88,2.78,2.56,5.64,2,8.5C169.95,190.41,168.33,193.21,165.68,195.89z
						 M138.24,210.24c4.83-1.16,10.45-3.59,16.68-7.21c3.98-2.31,7.31-4.81,9.9-7.43c2.57-2.6,4.16-5.33,4.69-8.1
						c0.54-2.76-0.11-5.53-1.93-8.23c-1.83-2.7-5.44-5.63-10.74-8.68l-26.92-15.54l-58.33,33.89l26.92,15.54
						c3.22,1.86,7.41,3.65,12.45,5.33c3.64,1.22,7.93,1.89,12.73,2.01C128.51,211.94,133.41,211.41,138.24,210.24"/>
				</g>
				<g>
					<path class="st3" d="M139.84,175.44c4.84,2.79,7.16,5.53,6.9,8.13c-0.27,2.59-3.6,5.76-9.91,9.43
						c-4.75,2.76-8.72,4.52-11.79,5.22c-3.12,0.72-6.01,0.84-8.58,0.38c-2.57-0.46-5.72-1.79-9.66-4.06l-4.85-2.8l32.95-19.15
						L139.84,175.44z M124.66,197.69c2.95-0.68,6.8-2.39,11.45-5.09c6.13-3.56,9.37-6.61,9.62-9.05c0.25-2.43-1.98-5.02-6.6-7.69
						l-4.23-2.44l-31.54,18.33l4.14,2.39c3.76,2.17,6.87,3.49,9.24,3.92C119.1,198.48,121.76,198.35,124.66,197.69"/>
				</g>
				<g>
					<path class="st4" d="M164.82,195.6c-2.59,2.62-5.93,5.12-9.9,7.43c-6.23,3.62-11.85,6.05-16.68,7.21
						c-4.83,1.16-9.73,1.7-14.55,1.58c-4.81-0.11-9.09-0.79-12.73-2.01c-5.04-1.68-9.22-3.47-12.45-5.33l-26.92-15.54l58.33-33.9
						l26.92,15.54c5.3,3.06,8.91,5.98,10.74,8.68c1.82,2.7,2.47,5.47,1.93,8.23C168.98,190.27,167.39,193,164.82,195.6z
						 M125.04,198.22c3.07-0.7,7.04-2.46,11.79-5.22c6.31-3.67,9.65-6.84,9.91-9.43c0.26-2.6-2.06-5.33-6.9-8.13l-4.94-2.85
						l-32.95,19.15l4.85,2.8c3.93,2.27,7.09,3.6,9.66,4.06C119.03,199.07,121.92,198.94,125.04,198.22"/>
				</g>
				<g>
					<path class="st3" d="M207.49,235.21c-1.05,2.47-3.23,4.68-6.5,6.58c-3.84,2.23-8.51,3.69-13.88,4.34
						c-5.38,0.65-10.89,0.35-16.39-0.89c-5.47-1.23-11.18-3.55-16.95-6.89c-10.16-5.86-15.32-11.14-15.34-15.7
						c-0.03-4.55,2.74-8.77,8.25-12.57l0.32-0.22l19.29,9.83l-0.28,0.21c-2.37,1.81-3.73,3.47-4.03,4.94
						c-0.48,2.37,1,4.57,4.38,6.52c2.52,1.46,5.07,2.25,7.57,2.35c2.51,0.1,4.47-0.27,5.99-1.16c1.43-0.83,2.07-1.93,1.93-3.34
						c-0.14-1.4-2.13-3.85-5.9-7.27c-6.25-5.67-9.66-10.46-10.14-14.25c-0.48-3.8,1.66-7.11,6.35-9.84c3.09-1.8,6.96-2.99,11.5-3.54
						c4.54-0.56,9.46-0.25,14.63,0.92c5.14,1.16,10.9,3.57,17.1,7.15c7.63,4.41,12.1,8.66,13.3,12.63c1.2,4-0.95,8.07-6.37,12.11
						l-0.33,0.24l-19.04-9.78l0.26-0.21c2.12-1.75,3.06-3.38,2.81-4.85c-0.25-1.47-1.65-2.96-4.14-4.4
						c-2.04-1.18-4.01-1.82-5.87-1.92c-1.84-0.09-3.31,0.2-4.51,0.89c-0.81,0.47-1.16,1.14-1.05,2.02c0.08,0.63,0.81,1.96,3.91,4.68
						c6.29,5.63,10.37,10.02,12.08,13.05C208.17,229.94,208.52,232.75,207.49,235.21z M186.9,245.57c5.17-0.62,9.67-2.03,13.38-4.18
						c3.14-1.82,5.24-3.95,6.23-6.31c1-2.36,0.65-5.06-1.03-8.02c-1.69-2.99-5.72-7.34-11.97-12.92c-2.58-2.27-3.94-3.94-4.07-4.96
						c-0.13-1.07,0.31-1.88,1.34-2.47c1.39-0.81,3.18-1.16,5.3-1.05c2.09,0.11,4.27,0.81,6.48,2.08c2.67,1.54,4.15,3.14,4.43,4.76
						c0.27,1.55-0.65,3.24-2.73,5.02l17.58,9.03c5.01-3.83,6.98-7.67,5.85-11.41c-1.15-3.86-5.54-8-13.02-12.32
						c-6.11-3.53-11.74-5.89-16.75-7.03c-4.98-1.13-9.71-1.43-14.06-0.9c-4.35,0.53-8.05,1.67-11,3.38
						c-4.48,2.6-6.52,5.76-6.07,9.39c0.47,3.69,3.82,8.39,9.99,13.97c3.92,3.56,5.91,6.03,6.05,7.56c0.16,1.56-0.6,2.83-2.22,3.77
						c-1.71,1-3.99,1.44-6.76,1.33c-2.76-0.11-5.51-0.96-8.21-2.52c-3.61-2.08-5.18-4.44-4.67-7c0.31-1.51,1.64-3.19,3.95-5
						l-17.82-9.08c-5.12,3.63-7.71,7.65-7.69,11.96c0.03,4.39,5.09,9.53,15.05,15.28c5.68,3.28,11.26,5.56,16.6,6.76
						C176.39,245.9,181.72,246.19,186.9,245.57"/>
				</g>
				<g>
					<path class="st4" d="M214.68,202.82c7.48,4.32,11.87,8.46,13.02,12.32c1.13,3.75-0.85,7.59-5.85,11.41l-17.58-9.03
						c2.08-1.78,3-3.47,2.73-5.02c-0.28-1.61-1.76-3.21-4.43-4.76c-2.21-1.28-4.39-1.98-6.48-2.08c-2.13-0.11-3.91,0.25-5.3,1.05
						c-1.03,0.6-1.47,1.41-1.34,2.47c0.13,1.02,1.49,2.69,4.07,4.96c6.26,5.58,10.28,9.93,11.97,12.92
						c1.68,2.96,2.02,5.66,1.03,8.02c-0.99,2.36-3.09,4.48-6.23,6.31c-3.7,2.15-8.21,3.56-13.38,4.18
						c-5.18,0.63-10.5,0.34-15.83-0.86c-5.34-1.2-10.93-3.48-16.6-6.76c-9.96-5.75-15.02-10.89-15.05-15.28
						c-0.02-4.31,2.57-8.33,7.69-11.96l17.82,9.08c-2.31,1.81-3.64,3.49-3.95,5c-0.51,2.56,1.06,4.92,4.67,7
						c2.7,1.56,5.45,2.41,8.21,2.52c2.78,0.11,5.05-0.33,6.76-1.33c1.62-0.94,2.37-2.22,2.22-3.77c-0.14-1.53-2.13-4-6.05-7.56
						c-6.17-5.58-9.52-10.28-9.99-13.97c-0.45-3.63,1.59-6.79,6.07-9.39c2.95-1.71,6.65-2.85,11-3.38c4.34-0.53,9.07-0.23,14.06,0.9
						C202.94,196.93,208.57,199.29,214.68,202.82z"/>
				</g>
			</g>
		</g>
	</g>
	<g>
		<g>
			<g class="st0">
				<g>
					<path class="st5" d="M159.16,190.46c-2.63,2.66-6.02,5.2-10.05,7.55c-6.33,3.68-12.05,6.14-17.01,7.34
						c-4.96,1.2-10,1.74-14.97,1.63c-4.98-0.12-9.42-0.82-13.2-2.09c-5.11-1.71-9.36-3.53-12.65-5.43l-27.63-15.95l59.73-34.71
						l27.63,15.95c5.4,3.12,9.09,6.11,10.97,8.88c1.89,2.79,2.55,5.65,2,8.5C163.43,184.99,161.81,187.79,159.16,190.46z
						 M131.71,204.82c4.84-1.16,10.45-3.59,16.69-7.21c3.98-2.31,7.3-4.81,9.89-7.43c2.58-2.61,4.16-5.33,4.7-8.1
						c0.53-2.76-0.12-5.53-1.94-8.22c-1.83-2.7-5.44-5.63-10.75-8.69l-26.92-15.54l-58.32,33.89L92,199.05
						c3.22,1.86,7.41,3.66,12.45,5.34c3.63,1.22,7.91,1.89,12.72,2.01C121.99,206.52,126.88,205.98,131.71,204.82"/>
				</g>
				<g>
					<path class="st5" d="M133.32,170.02c4.84,2.79,7.16,5.53,6.89,8.13c-0.26,2.59-3.59,5.76-9.9,9.43
						c-4.75,2.76-8.72,4.52-11.8,5.22c-3.12,0.72-6,0.85-8.57,0.38c-2.57-0.46-5.73-1.79-9.66-4.06l-4.85-2.8l32.96-19.15
						L133.32,170.02z M118.14,192.26c2.96-0.67,6.81-2.39,11.46-5.09c6.13-3.56,9.37-6.61,9.62-9.06c0.24-2.43-1.98-5.01-6.6-7.69
						l-4.23-2.44l-31.55,18.34l4.14,2.39c3.76,2.17,6.88,3.49,9.26,3.92C112.58,193.05,115.23,192.93,118.14,192.26"/>
				</g>
				<g>
					<path class="st6" d="M208.16,197.39c7.48,4.32,11.86,8.46,13.02,12.32c1.13,3.75-0.84,7.59-5.85,11.42l-17.58-9.03
						c2.08-1.78,3-3.47,2.73-5.03c-0.27-1.61-1.77-3.21-4.43-4.75c-2.22-1.28-4.4-1.98-6.48-2.08c-2.13-0.11-3.91,0.24-5.3,1.05
						c-1.03,0.6-1.47,1.4-1.35,2.47c0.12,1.02,1.49,2.69,4.06,4.96c6.26,5.58,10.28,9.93,11.97,12.92c1.68,2.96,2.02,5.66,1.03,8.02
						c-1,2.36-3.1,4.49-6.24,6.31c-3.7,2.15-8.2,3.56-13.37,4.18c-5.18,0.62-10.5,0.34-15.82-0.87c-5.35-1.21-10.93-3.48-16.62-6.76
						c-9.96-5.75-15.02-10.89-15.05-15.29c-0.02-4.31,2.56-8.33,7.69-11.96l17.82,9.08c-2.31,1.8-3.64,3.48-3.95,5
						c-0.52,2.56,1.05,4.91,4.67,7c2.69,1.56,5.46,2.4,8.2,2.52c2.78,0.11,5.06-0.33,6.77-1.32c1.62-0.94,2.37-2.22,2.23-3.78
						c-0.15-1.53-2.13-4-6.06-7.56c-6.15-5.58-9.51-10.28-9.97-13.97c-0.46-3.63,1.58-6.79,6.06-9.39c2.95-1.71,6.65-2.85,11-3.38
						c4.35-0.53,9.08-0.23,14.06,0.9C196.42,191.5,202.05,193.86,208.16,197.39z"/>
				</g>
			</g>
			<g>
				<path class="st5" d="M200.96,229.79c-1.04,2.47-3.22,4.68-6.49,6.58c-3.84,2.23-8.51,3.69-13.89,4.34
					c-5.37,0.65-10.89,0.35-16.39-0.89c-5.47-1.23-11.18-3.55-16.95-6.89c-10.15-5.86-15.32-11.14-15.34-15.69
					c-0.03-4.54,2.74-8.77,8.25-12.57l0.33-0.23l19.29,9.83l-0.29,0.22c-2.38,1.8-3.74,3.47-4.03,4.93
					c-0.48,2.38,0.99,4.57,4.38,6.52c2.52,1.46,5.07,2.24,7.57,2.35c2.51,0.11,4.47-0.28,5.99-1.16c1.44-0.84,2.08-1.92,1.94-3.33
					c-0.14-1.41-2.12-3.86-5.9-7.28c-6.26-5.66-9.67-10.45-10.14-14.24c-0.48-3.8,1.66-7.12,6.35-9.84
					c3.09-1.8,6.96-2.99,11.51-3.54c4.54-0.55,9.47-0.24,14.63,0.93c5.14,1.16,10.89,3.57,17.1,7.15c7.63,4.4,12.1,8.66,13.3,12.63
					c1.21,4-0.93,8.07-6.37,12.11l-0.32,0.24l-19.06-9.78l0.26-0.21c2.12-1.74,3.06-3.38,2.82-4.85c-0.26-1.48-1.65-2.96-4.14-4.4
					c-2.04-1.18-4.01-1.82-5.87-1.92c-1.84-0.09-3.31,0.2-4.5,0.88c-0.82,0.48-1.16,1.14-1.06,2.02c0.08,0.63,0.82,1.96,3.91,4.68
					c6.31,5.63,10.37,10.02,12.09,13.06C201.65,224.52,202,227.32,200.96,229.79z M180.38,240.15c5.18-0.63,9.67-2.03,13.37-4.18
					c3.14-1.82,5.24-3.95,6.24-6.31c0.99-2.36,0.65-5.06-1.03-8.02c-1.69-2.99-5.72-7.34-11.97-12.92
					c-2.57-2.27-3.94-3.94-4.06-4.96c-0.13-1.07,0.31-1.87,1.35-2.47c1.39-0.81,3.17-1.16,5.3-1.05c2.09,0.1,4.27,0.8,6.48,2.08
					c2.66,1.54,4.16,3.14,4.43,4.75c0.26,1.56-0.66,3.24-2.73,5.03l17.58,9.03c5.01-3.83,6.98-7.67,5.85-11.42
					c-1.16-3.85-5.54-8-13.02-12.32c-6.11-3.53-11.74-5.89-16.75-7.03c-4.98-1.13-9.71-1.43-14.06-0.9c-4.35,0.53-8.05,1.67-11,3.38
					c-4.48,2.6-6.52,5.76-6.06,9.39c0.46,3.69,3.82,8.39,9.97,13.97c3.93,3.56,5.91,6.03,6.06,7.56c0.15,1.56-0.6,2.83-2.23,3.78
					c-1.71,1-3.99,1.44-6.77,1.32c-2.74-0.11-5.51-0.96-8.2-2.52c-3.61-2.09-5.19-4.44-4.67-7c0.31-1.52,1.64-3.2,3.95-5
					l-17.82-9.08c-5.13,3.63-7.71,7.65-7.69,11.96c0.02,4.39,5.09,9.54,15.05,15.29c5.68,3.28,11.27,5.55,16.62,6.76
					C169.87,240.48,175.2,240.77,180.38,240.15"/>
			</g>
			<g>
				<path class="st6" d="M158.3,190.18c-2.59,2.62-5.92,5.12-9.89,7.43c-6.24,3.62-11.85,6.05-16.69,7.21
					c-4.83,1.16-9.72,1.7-14.55,1.58c-4.81-0.11-9.09-0.79-12.72-2.01c-5.04-1.68-9.23-3.48-12.45-5.34l-26.92-15.54l58.32-33.89
					l26.92,15.54c5.31,3.06,8.92,5.99,10.75,8.69c1.82,2.69,2.47,5.46,1.94,8.22C162.45,184.84,160.87,187.57,158.3,190.18z
					 M118.51,192.8c3.08-0.7,7.05-2.46,11.8-5.22c6.31-3.67,9.64-6.84,9.9-9.43c0.27-2.6-2.05-5.34-6.89-8.13l-4.94-2.85
					l-32.96,19.15l4.85,2.8c3.93,2.27,7.1,3.6,9.66,4.06C112.51,193.65,115.39,193.52,118.51,192.8"/>
			</g>
			<g>
				<polygon class="st6" points="119.29,147.25 60.97,181.14 44.21,171.46 54.62,139.01 21.42,158.3 4.86,148.75 63.18,114.86 
					79.78,124.44 69.25,157.11 102.7,137.67 				"/>
			</g>
			<g>
				<path class="st5" d="M102.69,136.85l18.01,10.4l-59.73,34.71l-17.85-10.3l9.91-30.91l-31.62,18.38L3.45,148.75l59.73-34.71
					l17.69,10.21l-10.03,31.12L102.69,136.85z M60.97,181.14l58.32-33.89l-16.59-9.58l-33.45,19.44l10.53-32.67l-16.6-9.58
					L4.86,148.75l16.56,9.56l33.2-19.29l-10.41,32.45L60.97,181.14"/>
			</g>
		</g>
	</g>
	<g>
		<g>
			<g>
				<path class="st7" d="M167.88,181.93c-2.59,2.62-5.92,5.12-9.89,7.43c-6.24,3.62-11.85,6.05-16.68,7.22
					c-4.84,1.16-9.72,1.69-14.55,1.58c-4.81-0.12-9.1-0.79-12.73-2.01c-5.04-1.68-9.23-3.48-12.45-5.34l-26.92-15.54l58.32-33.89
					l26.92,15.54c5.31,3.06,8.92,5.99,10.75,8.69c1.82,2.69,2.47,5.46,1.94,8.22C172.04,176.6,170.46,179.33,167.88,181.93z
					 M128.1,184.56c3.08-0.71,7.04-2.47,11.79-5.23c6.31-3.67,9.64-6.84,9.91-9.43c0.26-2.61-2.06-5.34-6.9-8.14l-4.94-2.85
					l-32.96,19.15l4.86,2.81c3.93,2.27,7.09,3.59,9.66,4.06C122.09,185.4,124.97,185.27,128.1,184.56"/>
			</g>
			<g class="st0">
				<g>
					<path class="st8" d="M168.75,182.22c-2.63,2.66-6.02,5.2-10.06,7.55c-6.33,3.68-12.05,6.14-17.01,7.34
						c-4.96,1.2-10,1.74-14.97,1.63c-4.98-0.12-9.41-0.82-13.19-2.08c-5.11-1.71-9.37-3.54-12.66-5.43l-27.63-15.95l59.73-34.71
						l27.63,15.95c5.4,3.12,9.1,6.11,10.98,8.89c1.88,2.78,2.55,5.65,2,8.5C173.02,176.75,171.39,179.55,168.75,182.22z
						 M141.3,196.58c4.84-1.17,10.45-3.59,16.68-7.22c3.98-2.31,7.3-4.81,9.89-7.43c2.58-2.6,4.16-5.33,4.7-8.1
						c0.54-2.76-0.12-5.53-1.94-8.22c-1.83-2.7-5.44-5.63-10.75-8.69l-26.92-15.54l-58.32,33.89l26.92,15.54
						c3.22,1.86,7.41,3.66,12.45,5.34c3.63,1.22,7.91,1.89,12.73,2.01C131.58,198.27,136.47,197.74,141.3,196.58"/>
				</g>
				<g>
					<path class="st8" d="M142.9,161.77c4.84,2.79,7.16,5.53,6.9,8.14c-0.27,2.59-3.6,5.76-9.91,9.43
						c-4.75,2.76-8.72,4.52-11.79,5.23c-3.13,0.72-6.01,0.84-8.57,0.38c-2.57-0.46-5.74-1.79-9.66-4.06l-4.86-2.81l32.96-19.15
						L142.9,161.77z M127.73,184.02c2.95-0.68,6.8-2.39,11.46-5.1c6.13-3.56,9.37-6.61,9.62-9.06c0.24-2.43-1.98-5.01-6.6-7.69
						l-4.22-2.44l-31.55,18.34l4.14,2.39c3.76,2.17,6.87,3.48,9.25,3.91C122.17,184.81,124.83,184.69,127.73,184.02"/>
				</g>
				<g>
					<path class="st7" d="M217.75,189.15c7.48,4.32,11.86,8.46,13.01,12.31c1.13,3.75-0.84,7.59-5.85,11.42l-17.58-9.03
						c2.08-1.78,3-3.47,2.74-5.02c-0.28-1.61-1.77-3.21-4.44-4.75c-2.21-1.28-4.39-1.98-6.48-2.08c-2.13-0.11-3.91,0.24-5.3,1.05
						c-1.03,0.6-1.47,1.41-1.34,2.47c0.12,1.02,1.49,2.69,4.06,4.95c6.25,5.58,10.28,9.93,11.97,12.92
						c1.68,2.96,2.02,5.65,1.03,8.01c-1,2.36-3.09,4.49-6.23,6.31c-3.7,2.15-8.2,3.55-13.38,4.18c-5.18,0.62-10.5,0.34-15.82-0.87
						c-5.35-1.21-10.93-3.48-16.61-6.75c-9.96-5.75-15.02-10.89-15.05-15.29c-0.02-4.31,2.56-8.33,7.68-11.97l17.82,9.08
						c-2.31,1.81-3.63,3.49-3.95,5c-0.51,2.56,1.05,4.91,4.67,7c2.7,1.56,5.46,2.4,8.2,2.52c2.78,0.11,5.06-0.33,6.77-1.32
						c1.63-0.95,2.37-2.22,2.23-3.78c-0.15-1.53-2.13-4-6.06-7.56c-6.15-5.58-9.51-10.28-9.97-13.97c-0.46-3.63,1.58-6.79,6.06-9.39
						c2.95-1.71,6.65-2.86,11-3.39c4.35-0.53,9.09-0.23,14.06,0.9C206,183.25,211.64,185.62,217.75,189.15z"/>
				</g>
				<g>
					<path class="st8" d="M210.54,221.55c-1.04,2.47-3.22,4.68-6.49,6.58c-3.84,2.23-8.51,3.69-13.88,4.34
						c-5.37,0.65-10.89,0.35-16.39-0.89c-5.47-1.23-11.18-3.55-16.95-6.89c-10.16-5.86-15.32-11.14-15.35-15.7
						c-0.03-4.54,2.76-8.77,8.25-12.56l0.33-0.23l19.29,9.83l-0.29,0.22c-2.38,1.8-3.74,3.47-4.03,4.93
						c-0.48,2.38,0.99,4.57,4.38,6.52c2.52,1.46,5.07,2.24,7.57,2.35c2.51,0.1,4.47-0.28,5.99-1.16c1.44-0.84,2.07-1.93,1.93-3.34
						c-0.14-1.41-2.12-3.86-5.9-7.28c-6.25-5.66-9.66-10.45-10.14-14.24c-0.48-3.8,1.66-7.12,6.35-9.84
						c3.09-1.8,6.96-2.99,11.51-3.54c4.54-0.55,9.47-0.24,14.63,0.93c5.14,1.16,10.89,3.57,17.1,7.15c7.63,4.4,12.1,8.66,13.3,12.63
						c1.2,3.99-0.94,8.07-6.37,12.11l-0.32,0.24L206,203.94l0.25-0.21c2.12-1.74,3.07-3.37,2.82-4.85c-0.25-1.47-1.65-2.96-4.14-4.4
						c-2.04-1.18-4.01-1.82-5.87-1.92c-1.84-0.09-3.31,0.2-4.5,0.88c-0.82,0.48-1.16,1.14-1.06,2.03c0.08,0.63,0.81,1.96,3.9,4.68
						c6.31,5.63,10.37,10.02,12.09,13.06C211.24,216.28,211.59,219.08,210.54,221.55z M189.96,231.9c5.18-0.63,9.68-2.03,13.38-4.18
						c3.14-1.82,5.23-3.95,6.23-6.31c0.99-2.36,0.65-5.05-1.03-8.01c-1.7-2.99-5.72-7.34-11.97-12.92
						c-2.57-2.26-3.94-3.93-4.06-4.95c-0.13-1.07,0.31-1.87,1.34-2.47c1.39-0.81,3.17-1.16,5.3-1.05c2.09,0.11,4.27,0.81,6.48,2.08
						c2.66,1.54,4.16,3.14,4.44,4.75c0.26,1.55-0.66,3.24-2.74,5.02l17.58,9.03c5.01-3.83,6.98-7.67,5.85-11.42
						c-1.15-3.85-5.54-8-13.01-12.31c-6.11-3.53-11.75-5.89-16.76-7.03c-4.98-1.12-9.71-1.43-14.06-0.9
						c-4.35,0.53-8.05,1.67-11,3.39c-4.48,2.6-6.52,5.76-6.06,9.39c0.47,3.69,3.82,8.39,9.97,13.97c3.93,3.56,5.91,6.03,6.06,7.56
						c0.15,1.56-0.6,2.83-2.23,3.78c-1.71,1-3.99,1.44-6.77,1.32c-2.74-0.11-5.5-0.96-8.2-2.52c-3.61-2.09-5.18-4.44-4.67-7
						c0.32-1.52,1.64-3.2,3.95-5l-17.82-9.08c-5.13,3.63-7.71,7.65-7.68,11.97c0.02,4.39,5.09,9.54,15.05,15.29
						c5.68,3.28,11.26,5.55,16.61,6.75C179.46,232.24,184.78,232.52,189.96,231.9"/>
				</g>
			</g>
			<g class="st0">
				<g>
					<path class="st8" d="M112.28,128.61l18.02,10.4l-59.73,34.71l-17.85-10.31l9.91-30.91l-31.62,18.38L13.04,140.5l59.73-34.71
						L90.45,116l-10.03,31.12L112.28,128.61z M70.56,172.9l58.32-33.89l-16.59-9.58l-33.45,19.44l10.53-32.67l-16.6-9.58
						L14.45,140.5L31,150.06l33.2-19.29L53.8,163.22L70.56,172.9"/>
				</g>
				<g>
					<polygon class="st7" points="128.88,139.01 70.56,172.9 53.8,163.22 64.2,130.77 31,150.06 14.45,140.5 72.77,106.61 
						89.37,116.2 78.84,148.86 112.28,129.42 					"/>
				</g>
			</g>
		</g>
	</g>
	<g>
		<g>
			<g>
				<polygon class="st9" points="125.81,130.76 67.49,164.66 50.73,154.98 61.14,122.52 27.94,141.82 11.38,132.26 69.7,98.37 
					86.3,107.95 75.77,140.62 109.21,121.18 				"/>
			</g>
			<g>
				<path class="st10" d="M139.84,153.53c4.83,2.79,7.16,5.53,6.89,8.13c-0.27,2.59-3.6,5.76-9.91,9.43
					c-4.75,2.76-8.72,4.52-11.79,5.23c-3.11,0.72-6,0.84-8.57,0.38c-2.54-0.46-5.79-1.82-9.66-4.06l-4.85-2.8l32.96-19.15
					L139.84,153.53z M124.66,175.78c2.95-0.68,6.8-2.39,11.46-5.1c6.13-3.56,9.37-6.61,9.62-9.05c0.23-2.43-1.98-5.02-6.6-7.69
					l-4.23-2.44l-31.55,18.34l4.14,2.39c3.76,2.17,6.88,3.49,9.25,3.91C119.1,176.57,121.76,176.44,124.66,175.78"/>
			</g>
			<g>
				<path class="st9" d="M214.68,180.9c7.48,4.32,11.86,8.46,13.02,12.32c1.12,3.75-0.85,7.59-5.85,11.41l-17.58-9.03
					c2.08-1.78,3-3.47,2.74-5.02c-0.28-1.61-1.77-3.21-4.44-4.75c-2.21-1.28-4.39-1.98-6.48-2.09c-2.13-0.11-3.91,0.25-5.3,1.05
					c-1.03,0.6-1.47,1.41-1.34,2.47c0.12,1.02,1.49,2.69,4.07,4.96c6.25,5.58,10.28,9.93,11.97,12.92c1.68,2.96,2.02,5.66,1.03,8.02
					c-1,2.36-3.1,4.49-6.24,6.31c-3.7,2.15-8.2,3.55-13.38,4.18c-5.18,0.63-10.5,0.33-15.82-0.87c-5.34-1.2-10.93-3.48-16.61-6.75
					c-9.96-5.75-15.02-10.89-15.05-15.29c-0.02-4.31,2.56-8.33,7.69-11.96l17.82,9.08c-2.31,1.81-3.64,3.49-3.96,5.01
					c-0.51,2.56,1.06,4.92,4.67,7c2.7,1.56,5.46,2.4,8.21,2.52c2.78,0.11,5.05-0.33,6.76-1.33c1.63-0.95,2.37-2.22,2.23-3.78
					c-0.15-1.53-2.13-4-6.06-7.55c-6.16-5.58-9.51-10.28-9.98-13.98c-0.45-3.63,1.59-6.79,6.06-9.39c2.95-1.71,6.65-2.85,11-3.38
					c4.34-0.53,9.08-0.23,14.06,0.9C202.94,175.01,208.57,177.38,214.68,180.9z"/>
			</g>
			<g class="st0">
				<g>
					<path class="st10" d="M109.21,120.36l18.02,10.4L67.5,165.47l-17.85-10.31l9.91-30.91l-31.62,18.38L9.97,132.26l59.73-34.71
						l17.69,10.21l-10.03,31.12L109.21,120.36z M67.49,164.66l58.32-33.89l-16.6-9.58l-33.45,19.44l10.53-32.67l-16.6-9.58
						l-58.32,33.89l16.56,9.56l33.2-19.29l-10.41,32.45L67.49,164.66"/>
				</g>
				<g>
					<path class="st9" d="M164.82,173.69c-2.59,2.62-5.92,5.11-9.9,7.42c-6.24,3.62-11.85,6.05-16.68,7.22
						c-4.83,1.16-9.72,1.69-14.55,1.58c-4.81-0.11-9.09-0.79-12.73-2.01c-5.04-1.68-9.22-3.47-12.45-5.33l-26.92-15.54l58.32-33.89
						l26.92,15.54c5.3,3.06,8.92,5.98,10.74,8.68c1.83,2.69,2.47,5.46,1.94,8.22C168.98,168.36,167.39,171.08,164.82,173.69z
						 M125.03,176.32c3.08-0.71,7.04-2.47,11.79-5.23c6.31-3.67,9.64-6.84,9.91-9.43c0.27-2.6-2.06-5.34-6.89-8.13l-4.94-2.85
						l-32.96,19.15l4.85,2.8c3.88,2.24,7.13,3.6,9.66,4.06C119.03,177.16,121.92,177.03,125.03,176.32"/>
				</g>
				<g>
					<path class="st10" d="M165.69,173.98c-2.63,2.66-6.02,5.2-10.06,7.55c-6.32,3.68-12.04,6.15-17,7.34
						c-4.97,1.19-10.01,1.74-14.97,1.62c-4.98-0.12-9.41-0.82-13.19-2.08c-5.11-1.71-9.37-3.54-12.65-5.43l-27.63-15.95l59.73-34.71
						l27.63,15.95c5.4,3.12,9.1,6.1,10.97,8.88c1.88,2.78,2.55,5.65,2,8.5C169.95,168.5,168.33,171.3,165.69,173.98z M138.24,188.33
						c4.84-1.17,10.45-3.59,16.68-7.22c3.98-2.31,7.3-4.81,9.9-7.42c2.58-2.61,4.16-5.33,4.7-8.11c0.54-2.76-0.11-5.53-1.94-8.22
						c-1.82-2.71-5.44-5.63-10.74-8.68l-26.92-15.54l-58.32,33.89l26.92,15.54c3.22,1.86,7.41,3.65,12.45,5.33
						c3.64,1.22,7.92,1.9,12.73,2.01C128.51,190.02,133.41,189.5,138.24,188.33"/>
				</g>
				<g>
					<path class="st10" d="M207.48,213.31c-1.04,2.46-3.23,4.68-6.5,6.58c-3.84,2.23-8.51,3.69-13.88,4.34
						c-5.37,0.65-10.88,0.35-16.39-0.89c-5.47-1.23-11.18-3.55-16.95-6.89c-10.16-5.86-15.32-11.14-15.34-15.69
						c-0.03-4.55,2.75-8.77,8.25-12.57l0.33-0.23l19.29,9.83L166,198c-2.38,1.81-3.74,3.47-4.03,4.94
						c-0.48,2.37,0.99,4.57,4.37,6.52c2.52,1.46,5.07,2.24,7.57,2.35c2.51,0.1,4.47-0.28,5.99-1.16c1.44-0.84,2.07-1.93,1.93-3.34
						c-0.14-1.41-2.12-3.86-5.9-7.28c-6.26-5.66-9.66-10.46-10.14-14.25c-0.47-3.81,1.67-7.11,6.35-9.84
						c3.09-1.8,6.96-2.99,11.51-3.54c4.53-0.56,9.46-0.25,14.62,0.93c5.14,1.16,10.9,3.57,17.1,7.15c7.63,4.4,12.1,8.66,13.3,12.63
						c1.2,4-0.95,8.07-6.38,12.12l-0.32,0.24l-19.04-9.78l0.25-0.21c2.12-1.75,3.06-3.38,2.81-4.85c-0.25-1.47-1.65-2.96-4.14-4.4
						c-2.04-1.18-4.01-1.82-5.87-1.92c-1.84-0.09-3.31,0.2-4.5,0.88c-0.82,0.48-1.16,1.14-1.05,2.02c0.07,0.64,0.81,1.96,3.9,4.69
						c6.31,5.63,10.37,10.02,12.08,13.05C208.17,208.03,208.52,210.84,207.48,213.31z M186.9,223.66c5.18-0.63,9.68-2.03,13.38-4.18
						c3.14-1.82,5.24-3.95,6.24-6.31c0.99-2.36,0.65-5.06-1.03-8.02c-1.69-2.99-5.72-7.34-11.97-12.92
						c-2.58-2.27-3.95-3.93-4.07-4.96c-0.13-1.07,0.31-1.87,1.34-2.47c1.39-0.81,3.17-1.16,5.3-1.05c2.09,0.11,4.27,0.81,6.48,2.09
						c2.67,1.54,4.16,3.14,4.44,4.75c0.26,1.56-0.66,3.24-2.74,5.02l17.58,9.03c5.01-3.83,6.98-7.66,5.85-11.41
						c-1.16-3.85-5.54-8-13.02-12.32c-6.11-3.53-11.74-5.89-16.75-7.03c-4.98-1.13-9.72-1.43-14.06-0.9
						c-4.35,0.53-8.05,1.67-11,3.38c-4.47,2.6-6.52,5.76-6.06,9.39c0.47,3.69,3.82,8.39,9.98,13.98c3.93,3.55,5.91,6.03,6.06,7.55
						c0.15,1.56-0.6,2.83-2.23,3.78c-1.71,1-3.99,1.44-6.76,1.33c-2.75-0.12-5.51-0.96-8.21-2.52c-3.61-2.08-5.18-4.44-4.67-7
						c0.32-1.52,1.64-3.2,3.96-5.01l-17.82-9.08c-5.13,3.63-7.71,7.65-7.69,11.96c0.02,4.39,5.09,9.54,15.05,15.29
						c5.68,3.28,11.27,5.55,16.61,6.75C176.4,223.99,181.72,224.28,186.9,223.66"/>
				</g>
			</g>
		</g>
	</g>
	<g>
		<g>
			<g>
				<path class="st11" d="M206.46,174.54c7.48,4.32,11.86,8.46,13.02,12.32c1.12,3.75-0.85,7.59-5.85,11.41l-17.58-9.03
					c2.08-1.78,3-3.47,2.74-5.02c-0.28-1.61-1.77-3.21-4.44-4.75c-2.21-1.28-4.39-1.98-6.48-2.08c-2.12-0.11-3.91,0.24-5.3,1.05
					c-1.03,0.6-1.47,1.41-1.34,2.47c0.12,1.02,1.49,2.69,4.07,4.96c6.25,5.58,10.28,9.93,11.97,12.92c1.68,2.96,2.02,5.66,1.03,8.02
					c-1,2.36-3.1,4.49-6.24,6.31c-3.7,2.15-8.2,3.56-13.38,4.18c-5.18,0.63-10.5,0.34-15.82-0.87c-5.34-1.2-10.93-3.48-16.61-6.75
					c-9.96-5.75-15.02-10.89-15.05-15.29c-0.02-4.31,2.56-8.33,7.69-11.96l17.81,9.08c-2.31,1.81-3.63,3.49-3.95,5
					c-0.51,2.56,1.06,4.92,4.67,7c2.69,1.56,5.45,2.4,8.2,2.52c2.78,0.11,5.06-0.34,6.76-1.33c1.63-0.95,2.37-2.22,2.23-3.78
					c-0.15-1.53-2.13-4-6.06-7.55c-6.16-5.58-9.51-10.28-9.98-13.98c-0.45-3.63,1.58-6.79,6.06-9.39c2.95-1.71,6.65-2.85,11-3.38
					c4.35-0.53,9.08-0.23,14.06,0.9C194.71,168.65,200.35,171.01,206.46,174.54z"/>
			</g>
			<g class="st0">
				<g>
					<path class="st12" d="M100.98,114L119,124.4l-59.73,34.71l-17.85-10.31l9.92-30.91l-31.62,18.38L1.74,125.9l59.73-34.71
						l17.69,10.21l-10.03,31.12L100.98,114z M59.27,158.29l58.32-33.89l-16.6-9.58l-33.45,19.44l10.54-32.66L61.47,92L3.15,125.9
						l16.56,9.56l33.2-19.29L42.5,148.61L59.27,158.29"/>
				</g>
				<g>
					<polygon class="st11" points="117.59,124.4 59.27,158.29 42.5,148.61 52.91,116.16 19.71,135.45 3.15,125.9 61.47,92 
						78.08,101.59 67.54,134.26 100.99,114.82 					"/>
				</g>
				<g>
					<path class="st12" d="M131.61,147.17c4.84,2.79,7.16,5.53,6.89,8.13c-0.27,2.59-3.6,5.76-9.91,9.43
						c-4.75,2.76-8.72,4.52-11.79,5.23c-3.12,0.72-6.01,0.84-8.57,0.38c-2.57-0.46-5.73-1.79-9.66-4.06l-4.85-2.8l32.96-19.15
						L131.61,147.17z M116.43,169.41c2.95-0.68,6.8-2.39,11.46-5.1c6.13-3.56,9.38-6.61,9.62-9.05c0.25-2.43-1.98-5.01-6.6-7.69
						l-4.23-2.44l-31.54,18.33l4.14,2.39c3.76,2.17,6.87,3.49,9.25,3.92C110.88,170.2,113.54,170.08,116.43,169.41"/>
				</g>
				<g>
					<path class="st11" d="M156.59,167.33c-2.59,2.62-5.92,5.11-9.9,7.42c-6.24,3.62-11.84,6.05-16.68,7.22
						c-4.83,1.16-9.72,1.69-14.55,1.58c-4.81-0.11-9.09-0.79-12.73-2.01c-5.04-1.67-9.22-3.47-12.45-5.33l-26.92-15.54l58.32-33.89
						l26.92,15.54c5.3,3.06,8.92,5.98,10.74,8.68c1.82,2.7,2.47,5.46,1.94,8.23C160.75,162,159.17,164.72,156.59,167.33z
						 M116.81,169.95c3.08-0.71,7.04-2.47,11.79-5.23c6.31-3.67,9.64-6.84,9.91-9.43c0.27-2.6-2.05-5.34-6.89-8.13l-4.94-2.85
						l-32.96,19.15l4.85,2.8c3.93,2.27,7.1,3.6,9.66,4.06C110.8,170.8,113.69,170.67,116.81,169.95"/>
				</g>
				<g>
					<path class="st12" d="M199.26,206.94c-1.04,2.47-3.23,4.68-6.5,6.58c-3.84,2.23-8.51,3.69-13.88,4.34
						c-5.37,0.65-10.89,0.35-16.39-0.89c-5.47-1.23-11.18-3.55-16.95-6.89c-10.16-5.86-15.32-11.14-15.34-15.69
						c-0.03-4.54,2.75-8.77,8.25-12.57l0.33-0.23l19.29,9.83l-0.28,0.21c-2.38,1.81-3.74,3.47-4.03,4.94
						c-0.48,2.37,0.99,4.57,4.38,6.52c2.52,1.46,5.07,2.24,7.57,2.35c2.51,0.1,4.47-0.28,5.99-1.16c1.44-0.84,2.07-1.93,1.93-3.34
						c-0.13-1.4-2.12-3.86-5.9-7.28c-6.26-5.66-9.67-10.45-10.14-14.25c-0.47-3.8,1.67-7.11,6.35-9.84
						c3.09-1.8,6.96-2.99,11.51-3.54c4.54-0.55,9.46-0.25,14.62,0.93c5.15,1.16,10.9,3.57,17.1,7.15c7.63,4.4,12.1,8.66,13.3,12.63
						c1.21,4-0.94,8.07-6.37,12.11l-0.32,0.24l-19.04-9.78l0.25-0.21c2.12-1.75,3.06-3.38,2.81-4.85c-0.25-1.47-1.65-2.96-4.14-4.4
						c-2.04-1.18-4.01-1.82-5.86-1.91c-1.85-0.1-3.31,0.2-4.5,0.88c-0.82,0.48-1.16,1.14-1.06,2.02c0.08,0.63,0.82,1.96,3.91,4.68
						c6.3,5.62,10.37,10.02,12.09,13.06C199.95,201.67,200.3,204.47,199.26,206.94z M178.67,217.29c5.18-0.62,9.68-2.03,13.38-4.18
						c3.14-1.82,5.24-3.95,6.24-6.31c0.99-2.36,0.65-5.06-1.03-8.02c-1.69-2.99-5.72-7.34-11.97-12.92
						c-2.58-2.27-3.95-3.93-4.07-4.96c-0.13-1.07,0.31-1.87,1.34-2.47c1.39-0.81,3.18-1.16,5.3-1.05c2.09,0.11,4.27,0.81,6.48,2.08
						c2.67,1.54,4.16,3.14,4.44,4.75c0.26,1.56-0.66,3.24-2.74,5.02l17.58,9.03c5.01-3.83,6.98-7.66,5.85-11.41
						c-1.16-3.85-5.54-8-13.02-12.32c-6.11-3.53-11.74-5.89-16.75-7.03c-4.98-1.13-9.71-1.43-14.06-0.9
						c-4.35,0.53-8.05,1.67-11,3.38c-4.48,2.6-6.52,5.76-6.06,9.39c0.47,3.69,3.82,8.39,9.98,13.98c3.93,3.55,5.91,6.03,6.06,7.55
						c0.15,1.56-0.6,2.83-2.23,3.78c-1.71,0.99-3.98,1.44-6.76,1.33c-2.75-0.12-5.51-0.96-8.2-2.52c-3.61-2.09-5.19-4.44-4.67-7
						c0.32-1.52,1.64-3.2,3.95-5l-17.81-9.08c-5.13,3.63-7.71,7.65-7.69,11.96c0.02,4.39,5.09,9.54,15.05,15.29
						c5.68,3.28,11.27,5.55,16.61,6.75C168.16,217.63,173.49,217.92,178.67,217.29"/>
				</g>
			</g>
			<g>
				<path class="st12" d="M157.46,167.62c-2.63,2.66-6.02,5.2-10.05,7.55c-6.32,3.68-12.05,6.14-17.01,7.34
					c-4.97,1.19-10,1.74-14.97,1.62c-4.97-0.11-9.41-0.82-13.19-2.08c-5.11-1.71-9.37-3.54-12.65-5.43l-27.63-15.95l59.73-34.71
					l27.63,15.95c5.4,3.12,9.09,6.11,10.97,8.88c1.88,2.78,2.55,5.65,2,8.5C161.72,162.14,160.1,164.95,157.46,167.62z
					 M130.01,181.97c4.84-1.16,10.45-3.59,16.68-7.22c3.98-2.31,7.3-4.81,9.9-7.42c2.58-2.61,4.16-5.33,4.7-8.1
					c0.53-2.76-0.12-5.53-1.94-8.23c-1.82-2.71-5.44-5.63-10.74-8.68l-26.92-15.54l-58.32,33.89l26.92,15.54
					c3.22,1.86,7.41,3.66,12.45,5.33c3.64,1.22,7.92,1.9,12.73,2.01C120.29,183.66,125.18,183.13,130.01,181.97"/>
			</g>
		</g>
	</g>
	<g>
		<g>
			<g class="st0">
				<g>
					<path class="st13" d="M109.21,105.76l18.02,10.4L67.5,150.87l-17.85-10.31l9.91-30.91l-31.62,18.38L9.97,117.65l59.73-34.71
						l17.69,10.21l-10.03,31.12L109.21,105.76z M67.49,150.05l58.32-33.89l-16.6-9.58l-33.45,19.44L86.3,93.34l-16.6-9.58
						l-58.32,33.89l16.56,9.56l33.2-19.29l-10.41,32.45L67.49,150.05"/>
				</g>
				<g>
					<polygon class="st14" points="125.81,116.16 67.49,150.05 50.73,140.37 61.14,107.92 27.94,127.21 11.38,117.65 69.7,83.76 
						86.3,93.34 75.77,126.01 109.21,106.57 					"/>
				</g>
				<g>
					<path class="st13" d="M139.84,138.92c4.83,2.79,7.16,5.53,6.89,8.13c-0.27,2.59-3.6,5.76-9.91,9.43
						c-4.75,2.76-8.72,4.52-11.79,5.23c-3.11,0.72-6,0.84-8.57,0.38c-2.54-0.46-5.79-1.82-9.66-4.06l-4.85-2.8l32.96-19.15
						L139.84,138.92z M124.66,161.17c2.95-0.68,6.8-2.39,11.46-5.1c6.13-3.56,9.37-6.61,9.62-9.05c0.24-2.43-1.98-5.02-6.6-7.69
						l-4.23-2.44l-31.54,18.33l4.14,2.39c3.76,2.17,6.87,3.49,9.24,3.92C119.1,161.96,121.76,161.83,124.66,161.17"/>
				</g>
				<g>
					<path class="st13" d="M165.69,159.37c-2.63,2.66-6.02,5.2-10.06,7.55c-6.32,3.68-12.04,6.15-17,7.34
						c-4.97,1.19-10.01,1.74-14.97,1.62c-4.98-0.12-9.41-0.82-13.19-2.08c-5.11-1.71-9.37-3.54-12.65-5.43l-27.63-15.95l59.73-34.71
						l27.63,15.95c5.4,3.12,9.1,6.1,10.97,8.88c1.88,2.78,2.55,5.65,2,8.5C169.95,153.9,168.33,156.7,165.69,159.37z M138.24,173.73
						c4.84-1.17,10.45-3.59,16.68-7.22c3.98-2.31,7.3-4.81,9.9-7.42c2.58-2.61,4.16-5.33,4.7-8.11c0.54-2.76-0.11-5.53-1.94-8.22
						c-1.82-2.71-5.44-5.63-10.74-8.68l-26.92-15.54l-58.32,33.89l26.92,15.54c3.22,1.86,7.41,3.65,12.45,5.33
						c3.64,1.22,7.92,1.9,12.73,2.01C128.51,175.42,133.41,174.89,138.24,173.73"/>
				</g>
				<g>
					<path class="st14" d="M164.82,159.08c-2.59,2.62-5.92,5.11-9.9,7.42c-6.24,3.62-11.85,6.05-16.68,7.22
						c-4.83,1.16-9.72,1.69-14.54,1.58c-4.81-0.11-9.09-0.79-12.73-2.01c-5.04-1.68-9.22-3.47-12.45-5.33l-26.92-15.54l58.32-33.89
						l26.92,15.54c5.3,3.06,8.92,5.98,10.74,8.68c1.83,2.69,2.47,5.46,1.94,8.22C168.98,153.75,167.39,156.48,164.82,159.08z
						 M125.03,161.71c3.08-0.71,7.04-2.47,11.79-5.23c6.31-3.67,9.64-6.84,9.91-9.43c0.27-2.6-2.06-5.34-6.89-8.13l-4.94-2.85
						l-32.96,19.15l4.85,2.8c3.88,2.24,7.13,3.6,9.66,4.06C119.03,162.55,121.92,162.42,125.03,161.71"/>
				</g>
				<g>
					<path class="st13" d="M207.48,198.7c-1.04,2.46-3.23,4.68-6.5,6.58c-3.84,2.23-8.51,3.69-13.88,4.34
						c-5.37,0.65-10.88,0.35-16.39-0.89c-5.47-1.23-11.18-3.55-16.95-6.89c-10.16-5.86-15.32-11.14-15.34-15.69
						c-0.03-4.55,2.75-8.77,8.25-12.57l0.33-0.23l19.29,9.83l-0.28,0.21c-2.38,1.81-3.74,3.47-4.03,4.94
						c-0.48,2.37,0.99,4.57,4.37,6.52c2.52,1.46,5.07,2.24,7.57,2.35c2.51,0.1,4.47-0.28,5.99-1.16c1.44-0.84,2.07-1.93,1.93-3.34
						c-0.14-1.41-2.12-3.86-5.9-7.28c-6.26-5.66-9.66-10.46-10.14-14.25c-0.48-3.8,1.67-7.11,6.35-9.84
						c3.09-1.8,6.96-2.99,11.51-3.54c4.53-0.56,9.46-0.25,14.62,0.93c5.14,1.16,10.9,3.57,17.1,7.15c7.63,4.4,12.1,8.66,13.3,12.63
						c1.2,4-0.95,8.07-6.38,12.12l-0.32,0.24l-19.04-9.78l0.25-0.21c2.12-1.75,3.06-3.38,2.81-4.85c-0.25-1.47-1.65-2.96-4.14-4.4
						c-2.04-1.18-4.01-1.82-5.87-1.92c-1.84-0.09-3.31,0.2-4.5,0.88c-0.82,0.48-1.16,1.14-1.05,2.02c0.07,0.64,0.81,1.96,3.9,4.69
						c6.31,5.63,10.37,10.02,12.08,13.05C208.17,193.42,208.52,196.23,207.48,198.7z M186.9,209.05c5.18-0.63,9.68-2.03,13.38-4.18
						c3.14-1.82,5.24-3.95,6.24-6.31c0.99-2.36,0.65-5.06-1.03-8.02c-1.7-2.99-5.72-7.33-11.97-12.92
						c-2.58-2.27-3.95-3.93-4.07-4.96c-0.13-1.07,0.31-1.87,1.34-2.47c1.39-0.81,3.17-1.16,5.3-1.05c2.09,0.11,4.27,0.81,6.48,2.09
						c2.67,1.54,4.16,3.14,4.44,4.75c0.26,1.56-0.66,3.24-2.74,5.02l17.58,9.03c5.01-3.83,6.98-7.66,5.85-11.41
						c-1.16-3.85-5.54-8-13.02-12.32c-6.11-3.53-11.74-5.89-16.75-7.03c-4.98-1.13-9.72-1.43-14.06-0.9
						c-4.35,0.53-8.05,1.67-11,3.38c-4.47,2.6-6.52,5.76-6.06,9.39c0.47,3.69,3.82,8.39,9.98,13.98c3.93,3.55,5.91,6.03,6.06,7.55
						c0.15,1.56-0.6,2.83-2.23,3.78c-1.71,0.99-3.99,1.44-6.76,1.33c-2.75-0.12-5.51-0.96-8.21-2.52c-3.61-2.08-5.18-4.44-4.67-7
						c0.32-1.52,1.64-3.2,3.96-5.01l-17.82-9.08c-5.13,3.63-7.71,7.65-7.69,11.96c0.02,4.39,5.09,9.54,15.05,15.29
						c5.68,3.28,11.27,5.55,16.61,6.75C176.4,209.38,181.72,209.68,186.9,209.05"/>
				</g>
				<g>
					<path class="st14" d="M214.68,166.3c7.48,4.32,11.86,8.46,13.02,12.32c1.12,3.75-0.85,7.59-5.85,11.41L204.26,181
						c2.08-1.78,3-3.47,2.74-5.02c-0.28-1.61-1.77-3.21-4.44-4.75c-2.21-1.28-4.39-1.98-6.48-2.09c-2.13-0.11-3.91,0.25-5.3,1.05
						c-1.03,0.6-1.47,1.41-1.34,2.47c0.12,1.02,1.49,2.69,4.07,4.96c6.25,5.58,10.28,9.93,11.97,12.92
						c1.67,2.96,2.02,5.66,1.03,8.02c-1,2.36-3.1,4.49-6.24,6.31c-3.7,2.15-8.2,3.55-13.38,4.18c-5.18,0.63-10.5,0.33-15.82-0.87
						c-5.34-1.2-10.93-3.48-16.61-6.75c-9.96-5.75-15.02-10.89-15.05-15.29c-0.02-4.31,2.56-8.33,7.69-11.96l17.82,9.08
						c-2.31,1.81-3.64,3.49-3.96,5.01c-0.51,2.56,1.06,4.92,4.67,7c2.7,1.56,5.46,2.4,8.21,2.52c2.78,0.11,5.06-0.34,6.76-1.33
						c1.63-0.95,2.37-2.22,2.23-3.78c-0.15-1.53-2.13-4-6.06-7.55c-6.16-5.58-9.51-10.28-9.98-13.98c-0.45-3.63,1.59-6.79,6.06-9.39
						c2.95-1.71,6.65-2.85,11-3.38c4.34-0.53,9.08-0.23,14.06,0.9C202.94,160.41,208.57,162.77,214.68,166.3z"/>
				</g>
			</g>
		</g>
	</g>
	<g>
		<g>
			<g>
				<path class="st15" d="M165.68,152.07c-2.63,2.66-6.02,5.2-10.06,7.55c-6.32,3.68-12.04,6.15-17,7.34
					c-4.97,1.19-10.01,1.74-14.97,1.62c-4.98-0.12-9.41-0.82-13.19-2.09c-5.11-1.7-9.37-3.53-12.66-5.43l-27.63-15.95l59.73-34.71
					l27.63,15.95c5.4,3.12,9.09,6.11,10.96,8.89c1.88,2.78,2.56,5.64,2,8.5C169.95,146.59,168.33,149.39,165.68,152.07z
					 M138.24,166.42c4.83-1.16,10.45-3.59,16.68-7.21c3.98-2.31,7.31-4.81,9.91-7.43c2.58-2.61,4.16-5.33,4.69-8.1
					c0.54-2.76-0.11-5.53-1.93-8.23c-1.83-2.7-5.44-5.63-10.74-8.68l-26.92-15.54l-58.33,33.89l26.92,15.54
					c3.22,1.86,7.41,3.65,12.45,5.33c3.64,1.22,7.93,1.89,12.73,2.01C128.51,168.12,133.41,167.59,138.24,166.42"/>
			</g>
			<g>
				<path class="st16" d="M214.68,158.99c7.48,4.32,11.86,8.46,13.01,12.32c1.13,3.75-0.85,7.59-5.85,11.41l-17.58-9.03
					c2.08-1.78,3-3.47,2.73-5.02c-0.28-1.61-1.76-3.21-4.43-4.76c-2.21-1.28-4.39-1.98-6.48-2.08c-2.13-0.11-3.91,0.25-5.3,1.05
					c-1.03,0.6-1.47,1.41-1.34,2.47c0.12,1.02,1.49,2.69,4.06,4.96c6.26,5.58,10.28,9.93,11.97,12.92c1.68,2.96,2.02,5.66,1.03,8.02
					c-0.99,2.36-3.09,4.48-6.23,6.31c-3.7,2.15-8.21,3.56-13.38,4.18c-5.18,0.63-10.5,0.34-15.83-0.86
					c-5.34-1.2-10.93-3.48-16.6-6.76c-9.96-5.75-15.02-10.89-15.05-15.28c-0.02-4.31,2.57-8.33,7.69-11.96l17.82,9.08
					c-2.31,1.81-3.64,3.49-3.95,5c-0.51,2.56,1.06,4.92,4.67,7c2.7,1.56,5.45,2.41,8.21,2.52c2.78,0.11,5.05-0.33,6.76-1.33
					c1.62-0.94,2.37-2.22,2.22-3.77c-0.14-1.53-2.13-4-6.05-7.56c-6.17-5.58-9.52-10.28-9.99-13.97c-0.45-3.63,1.59-6.79,6.07-9.39
					c2.95-1.71,6.65-2.85,11-3.38c4.34-0.53,9.07-0.23,14.06,0.9C202.94,153.11,208.57,155.46,214.68,158.99z"/>
			</g>
			<g>
				<path class="st15" d="M207.49,191.39c-1.05,2.47-3.23,4.68-6.5,6.58c-3.84,2.23-8.51,3.69-13.88,4.34
					c-5.38,0.65-10.89,0.35-16.39-0.89c-5.47-1.23-11.18-3.55-16.95-6.89c-10.16-5.86-15.31-11.15-15.34-15.7
					c-0.03-4.55,2.74-8.77,8.25-12.57l0.32-0.22l19.29,9.83l-0.28,0.21c-2.37,1.81-3.73,3.47-4.03,4.94c-0.48,2.37,1,4.57,4.38,6.52
					c2.52,1.46,5.07,2.25,7.57,2.35c2.51,0.1,4.47-0.27,5.99-1.16c1.43-0.83,2.07-1.93,1.93-3.34c-0.14-1.4-2.13-3.85-5.9-7.27
					c-6.25-5.67-9.66-10.46-10.14-14.25c-0.48-3.8,1.67-7.11,6.35-9.84c3.09-1.8,6.96-2.99,11.51-3.54
					c4.53-0.56,9.46-0.24,14.62,0.93c5.14,1.16,10.9,3.57,17.1,7.15c7.63,4.4,12.1,8.66,13.3,12.63c1.2,4-0.95,8.07-6.37,12.11
					l-0.33,0.24l-19.04-9.78l0.26-0.21c2.12-1.75,3.06-3.38,2.81-4.85c-0.25-1.47-1.65-2.96-4.14-4.4
					c-2.04-1.18-4.01-1.82-5.87-1.92c-1.84-0.09-3.31,0.2-4.51,0.89c-0.81,0.47-1.16,1.14-1.05,2.02c0.08,0.63,0.81,1.96,3.91,4.68
					c6.29,5.63,10.37,10.02,12.08,13.05C208.17,186.12,208.52,188.93,207.49,191.39z M186.9,201.74c5.17-0.62,9.67-2.03,13.38-4.18
					c3.14-1.82,5.24-3.95,6.23-6.31c1-2.36,0.65-5.06-1.03-8.02c-1.69-2.99-5.72-7.34-11.97-12.92c-2.58-2.27-3.94-3.94-4.06-4.96
					c-0.13-1.06,0.31-1.87,1.34-2.47c1.39-0.81,3.18-1.16,5.3-1.05c2.09,0.11,4.27,0.81,6.48,2.08c2.67,1.54,4.15,3.14,4.43,4.76
					c0.27,1.55-0.65,3.24-2.73,5.02l17.58,9.03c5.01-3.83,6.98-7.67,5.85-11.41c-1.15-3.86-5.53-8-13.01-12.32
					c-6.11-3.53-11.75-5.89-16.76-7.02c-4.98-1.13-9.71-1.43-14.06-0.9c-4.35,0.53-8.05,1.67-11,3.38c-4.48,2.6-6.52,5.76-6.07,9.39
					c0.47,3.69,3.82,8.39,9.99,13.97c3.92,3.56,5.91,6.03,6.05,7.56c0.16,1.56-0.6,2.83-2.22,3.77c-1.71,1-3.99,1.44-6.76,1.33
					c-2.76-0.11-5.51-0.96-8.21-2.52c-3.61-2.08-5.18-4.44-4.67-7c0.31-1.51,1.64-3.19,3.95-5l-17.82-9.08
					c-5.12,3.63-7.71,7.65-7.69,11.96c0.03,4.39,5.09,9.53,15.05,15.28c5.68,3.28,11.26,5.56,16.6,6.76
					C176.39,202.08,181.72,202.37,186.9,201.74"/>
			</g>
			<g>
				<path class="st15" d="M139.84,131.62c4.84,2.79,7.16,5.53,6.89,8.13c-0.27,2.59-3.6,5.76-9.91,9.43
					c-4.75,2.76-8.72,4.52-11.79,5.22c-3.12,0.72-6.01,0.84-8.58,0.38c-2.57-0.46-5.72-1.79-9.66-4.06l-4.85-2.8l32.96-19.15
					L139.84,131.62z M124.66,153.86c2.95-0.68,6.8-2.39,11.45-5.09c6.13-3.56,9.37-6.61,9.62-9.05c0.24-2.43-1.98-5.02-6.6-7.69
					l-4.23-2.44l-31.54,18.33l4.14,2.39c3.76,2.17,6.87,3.49,9.25,3.91C119.1,154.66,121.76,154.53,124.66,153.86"/>
			</g>
			<g>
				<path class="st16" d="M164.82,151.78c-2.59,2.62-5.93,5.12-9.9,7.43c-6.23,3.62-11.85,6.05-16.68,7.21
					c-4.83,1.16-9.73,1.7-14.55,1.58c-4.81-0.11-9.09-0.79-12.73-2.01c-5.04-1.68-9.22-3.47-12.45-5.33l-26.92-15.54l58.33-33.89
					l26.92,15.54c5.3,3.06,8.91,5.98,10.74,8.68c1.82,2.7,2.47,5.47,1.93,8.23C168.98,146.45,167.4,149.17,164.82,151.78z
					 M125.04,154.4c3.07-0.7,7.04-2.46,11.79-5.22c6.31-3.67,9.65-6.84,9.91-9.43c0.27-2.6-2.05-5.34-6.89-8.13l-4.94-2.85
					l-32.96,19.15l4.85,2.8c3.93,2.27,7.09,3.6,9.66,4.06C119.03,155.25,121.92,155.12,125.04,154.4"/>
			</g>
			<g>
				<path class="st15" d="M109.21,98.45l18.02,10.4L67.5,143.57l-17.85-10.31l9.91-30.91l-31.62,18.38L9.96,110.35L69.7,75.64
					l17.69,10.21l-10.04,31.12L109.21,98.45z M67.49,142.75l58.33-33.9l-16.6-9.58l-33.45,19.44L86.3,86.04l-16.6-9.58l-58.33,33.9
					l16.56,9.56l33.2-19.29l-10.41,32.45L67.49,142.75"/>
			</g>
			<g>
				<polygon class="st16" points="125.82,108.85 67.49,142.75 50.73,133.07 61.13,100.61 27.93,119.91 11.38,110.35 69.7,76.45 
					86.3,86.04 75.77,118.71 109.22,99.27 				"/>
			</g>
		</g>
	</g>
	<g>
		<g>
			<g>
				<path class="st17" d="M226.84,151.66c7.48,4.32,11.86,8.46,13.02,12.32c1.12,3.75-0.84,7.59-5.85,11.41l-17.58-9.02
					c2.08-1.78,3-3.47,2.73-5.03c-0.28-1.61-1.77-3.21-4.43-4.75c-2.22-1.28-4.4-1.98-6.48-2.09c-2.12-0.11-3.91,0.25-5.3,1.06
					c-1.03,0.6-1.47,1.4-1.35,2.47c0.12,1.02,1.49,2.69,4.07,4.96c6.25,5.58,10.28,9.93,11.97,12.92c1.67,2.96,2.02,5.66,1.03,8.02
					c-1,2.36-3.1,4.49-6.24,6.31c-3.7,2.15-8.2,3.56-13.38,4.18c-5.18,0.63-10.5,0.33-15.81-0.86c-5.35-1.21-10.93-3.48-16.62-6.76
					c-9.96-5.75-15.02-10.89-15.05-15.29c-0.02-4.31,2.57-8.33,7.69-11.96l17.82,9.08c-2.31,1.81-3.64,3.49-3.95,5.01
					c-0.52,2.56,1.05,4.91,4.67,7c2.69,1.56,5.46,2.4,8.21,2.51c2.78,0.12,5.05-0.33,6.76-1.32c1.63-0.95,2.37-2.22,2.23-3.77
					c-0.15-1.53-2.13-4-6.06-7.56c-6.16-5.58-9.52-10.28-9.98-13.97c-0.46-3.63,1.58-6.79,6.06-9.4c2.95-1.71,6.65-2.85,11-3.38
					c4.34-0.53,9.07-0.23,14.06,0.9C215.1,145.77,220.73,148.13,226.84,151.66z"/>
			</g>
			<g class="st0">
				<g>
					<path class="st18" d="M121.38,91.12l18.02,10.4l-59.73,34.71l-17.85-10.3l9.91-30.91L40.11,113.4l-17.97-10.38l59.73-34.71
						l17.69,10.21l-10.05,31.12L121.38,91.12z M79.66,135.41l58.32-33.89l-16.59-9.58l-33.45,19.44l10.53-32.67l-16.6-9.58
						l-58.32,33.89l16.56,9.56l33.2-19.29l-10.41,32.45L79.66,135.41"/>
				</g>
				<g>
					<path class="st18" d="M152,124.29c4.84,2.79,7.16,5.53,6.9,8.13c-0.26,2.59-3.6,5.77-9.91,9.43c-4.75,2.76-8.72,4.52-11.8,5.22
						c-3.11,0.72-6,0.84-8.57,0.38c-2.57-0.46-5.72-1.79-9.66-4.06l-4.85-2.8l32.95-19.15L152,124.29z M136.82,146.53
						c2.95-0.68,6.8-2.39,11.46-5.1c6.13-3.56,9.38-6.61,9.62-9.05c0.25-2.43-1.98-5.01-6.6-7.69l-4.23-2.44l-31.54,18.33l4.14,2.39
						c3.76,2.17,6.87,3.49,9.25,3.92C131.26,147.32,133.92,147.2,136.82,146.53"/>
				</g>
				<g>
					<path class="st18" d="M177.85,144.74c-2.63,2.66-6.01,5.2-10.05,7.55c-6.32,3.68-12.05,6.14-17.01,7.34
						c-4.96,1.2-10,1.74-14.97,1.63c-4.98-0.12-9.42-0.82-13.19-2.09c-5.11-1.7-9.37-3.53-12.66-5.43l-27.63-15.95l59.73-34.71
						l27.63,15.95c5.4,3.12,9.09,6.11,10.96,8.89c1.89,2.79,2.55,5.65,2,8.5C182.12,139.27,180.5,142.06,177.85,144.74z
						 M150.4,159.09c4.84-1.16,10.45-3.59,16.69-7.21c3.98-2.31,7.3-4.81,9.89-7.43c2.58-2.61,4.16-5.33,4.7-8.1
						c0.53-2.76-0.11-5.53-1.94-8.23c-1.82-2.7-5.43-5.62-10.74-8.68l-26.92-15.54l-58.32,33.89l26.92,15.54
						c3.22,1.86,7.42,3.66,12.45,5.34c3.63,1.22,7.91,1.89,12.73,2.01C140.68,160.79,145.57,160.25,150.4,159.09"/>
				</g>
				<g>
					<path class="st18" d="M219.64,184.06c-1.04,2.47-3.23,4.68-6.5,6.58c-3.84,2.23-8.5,3.69-13.88,4.34
						c-5.37,0.65-10.88,0.35-16.39-0.89c-5.47-1.23-11.18-3.55-16.95-6.89c-10.15-5.86-15.32-11.14-15.34-15.69
						c-0.02-4.55,2.75-8.77,8.25-12.57l0.33-0.23l19.29,9.83l-0.29,0.21c-2.38,1.81-3.73,3.47-4.03,4.94
						c-0.48,2.37,0.99,4.57,4.38,6.52c2.52,1.46,5.07,2.24,7.57,2.34c2.51,0.11,4.47-0.27,5.98-1.15c1.44-0.84,2.08-1.92,1.93-3.34
						c-0.13-1.4-2.12-3.85-5.9-7.28c-6.26-5.66-9.66-10.46-10.14-14.24c-0.47-3.81,1.66-7.12,6.35-9.85
						c3.09-1.8,6.96-2.99,11.5-3.54c4.55-0.56,9.47-0.24,14.64,0.93c5.14,1.16,10.88,3.57,17.09,7.15
						c7.63,4.4,12.11,8.65,13.3,12.63c1.2,4-0.95,8.07-6.37,12.11l-0.32,0.25l-19.05-9.79l0.26-0.21c2.12-1.74,3.06-3.38,2.8-4.85
						c-0.25-1.47-1.64-2.95-4.14-4.39c-2.04-1.18-4.01-1.82-5.86-1.92c-1.85-0.1-3.32,0.2-4.51,0.89c-0.82,0.48-1.16,1.14-1.06,2.02
						c0.07,0.64,0.82,1.96,3.91,4.68c6.3,5.63,10.37,10.02,12.09,13.06C220.33,178.79,220.68,181.59,219.64,184.06z M199.06,194.41
						c5.18-0.62,9.68-2.03,13.38-4.18c3.14-1.82,5.24-3.95,6.24-6.31c0.99-2.36,0.65-5.06-1.03-8.02
						c-1.7-2.99-5.72-7.33-11.97-12.92c-2.58-2.27-3.95-3.93-4.07-4.96c-0.13-1.07,0.31-1.87,1.35-2.47
						c1.39-0.81,3.18-1.16,5.3-1.06c2.09,0.11,4.27,0.81,6.48,2.09c2.66,1.54,4.15,3.13,4.43,4.75c0.26,1.56-0.66,3.24-2.73,5.03
						l17.58,9.02c5.01-3.82,6.98-7.66,5.85-11.41c-1.16-3.85-5.54-8-13.02-12.32c-6.11-3.53-11.74-5.89-16.75-7.03
						c-4.98-1.13-9.71-1.43-14.06-0.9c-4.36,0.53-8.05,1.67-11,3.38c-4.48,2.6-6.52,5.77-6.06,9.4c0.46,3.69,3.82,8.39,9.98,13.97
						c3.93,3.56,5.91,6.03,6.06,7.56c0.14,1.56-0.6,2.83-2.23,3.77c-1.71,0.99-3.98,1.44-6.76,1.32c-2.75-0.11-5.52-0.96-8.21-2.51
						c-3.61-2.09-5.19-4.44-4.67-7c0.31-1.52,1.64-3.2,3.95-5.01l-17.82-9.08c-5.12,3.63-7.71,7.65-7.69,11.96
						c0.02,4.39,5.09,9.54,15.05,15.29c5.68,3.28,11.27,5.55,16.62,6.76C188.56,194.75,193.88,195.04,199.06,194.41"/>
				</g>
			</g>
			<g>
				<path class="st17" d="M176.98,144.45c-2.59,2.61-5.92,5.12-9.89,7.43c-6.24,3.62-11.85,6.05-16.69,7.21
					c-4.82,1.16-9.71,1.7-14.54,1.58c-4.81-0.11-9.09-0.79-12.73-2.01c-5.04-1.68-9.23-3.48-12.45-5.34l-26.92-15.54l58.32-33.89
					L169,119.43c5.31,3.06,8.92,5.98,10.74,8.68c1.83,2.69,2.47,5.46,1.94,8.23C181.14,139.12,179.55,141.84,176.98,144.45z
					 M137.19,147.07c3.08-0.71,7.05-2.46,11.8-5.22c6.31-3.67,9.65-6.84,9.91-9.43c0.26-2.6-2.06-5.33-6.9-8.13l-4.94-2.85
					l-32.95,19.15l4.85,2.8c3.93,2.27,7.09,3.6,9.66,4.06C131.2,147.92,134.08,147.79,137.19,147.07"/>
			</g>
			<g>
				<polygon class="st17" points="137.97,101.52 79.66,135.41 62.89,125.73 73.3,93.28 40.1,112.58 23.55,103.02 81.87,69.13 
					98.47,78.71 87.93,111.38 121.38,91.94 				"/>
			</g>
		</g>
	</g>
	<g>
		<g>
			<g class="st0">
				<g>
					<path class="st19" d="M109.21,83.84l18.02,10.4l-59.73,34.71l-17.85-10.31l9.91-30.91l-31.62,18.38L9.96,95.74l59.73-34.71
						l17.69,10.21l-10.04,31.12L109.21,83.84z M67.49,128.14l58.33-33.9l-16.6-9.58L75.77,104.1L86.3,71.43l-16.6-9.58l-58.33,33.9
						l16.56,9.56L61.13,86l-10.41,32.45L67.49,128.14"/>
				</g>
				<g>
					<polygon class="st20" points="125.81,94.24 67.49,128.14 50.72,118.46 61.13,86 27.93,105.3 11.37,95.74 69.7,61.85 
						86.3,71.43 75.77,104.1 109.21,84.66 					"/>
				</g>
				<g>
					<path class="st20" d="M164.82,137.17c-2.59,2.62-5.93,5.12-9.9,7.43c-6.23,3.62-11.85,6.05-16.68,7.21
						c-4.83,1.16-9.73,1.7-14.55,1.58c-4.81-0.11-9.09-0.79-12.73-2.01c-5.04-1.68-9.22-3.47-12.45-5.33L71.59,130.5l58.33-33.9
						l26.92,15.54c5.3,3.06,8.91,5.98,10.74,8.68c1.82,2.7,2.47,5.46,1.93,8.23C168.98,131.84,167.39,134.56,164.82,137.17z
						 M125.03,139.79c3.08-0.71,7.04-2.47,11.79-5.22c6.31-3.67,9.65-6.84,9.91-9.43c0.27-2.6-2.05-5.34-6.89-8.13l-4.94-2.85
						l-32.96,19.15l4.85,2.8c3.93,2.27,7.09,3.6,9.66,4.06C119.02,140.64,121.91,140.51,125.03,139.79"/>
				</g>
				<g>
					<path class="st19" d="M139.84,117.01c4.84,2.79,7.16,5.53,6.89,8.13c-0.27,2.59-3.6,5.76-9.91,9.43
						c-4.74,2.76-8.71,4.52-11.79,5.22c-3.12,0.72-6.01,0.84-8.58,0.38c-2.57-0.46-5.72-1.79-9.66-4.06l-4.85-2.8l32.96-19.15
						L139.84,117.01z M124.66,139.26c2.95-0.68,6.8-2.39,11.45-5.09c6.13-3.56,9.37-6.61,9.62-9.05c0.24-2.43-1.98-5.02-6.6-7.69
						l-4.23-2.44l-31.54,18.33l4.14,2.39c3.76,2.17,6.87,3.49,9.25,3.91C119.1,140.05,121.76,139.92,124.66,139.26"/>
				</g>
				<g>
					<path class="st19" d="M165.69,137.46c-2.64,2.67-6.02,5.2-10.06,7.55c-6.32,3.68-12.04,6.14-17,7.34
						c-4.97,1.19-10.01,1.74-14.97,1.62c-4.97-0.12-9.41-0.82-13.19-2.09c-5.11-1.7-9.37-3.53-12.66-5.43L70.17,130.5l59.73-34.71
						l27.63,15.95c5.4,3.12,9.09,6.11,10.96,8.89c1.88,2.78,2.56,5.64,2,8.5C169.95,131.98,168.32,134.78,165.69,137.46z
						 M138.24,151.81c4.83-1.16,10.45-3.59,16.68-7.21c3.98-2.31,7.31-4.81,9.9-7.43c2.58-2.61,4.16-5.33,4.69-8.1
						c0.54-2.76-0.11-5.53-1.93-8.23c-1.83-2.7-5.44-5.63-10.74-8.68l-26.92-15.54l-58.33,33.9l26.92,15.54
						c3.22,1.86,7.41,3.65,12.45,5.33c3.64,1.22,7.93,1.89,12.73,2.01C128.51,153.51,133.41,152.98,138.24,151.81"/>
				</g>
				<g>
					<path class="st20" d="M214.68,144.38c7.48,4.32,11.86,8.46,13.01,12.32c1.13,3.75-0.84,7.58-5.85,11.41l-17.58-9.03
						c2.08-1.78,3-3.47,2.73-5.02c-0.28-1.61-1.76-3.21-4.43-4.76c-2.21-1.28-4.39-1.98-6.48-2.08c-2.13-0.11-3.91,0.24-5.3,1.05
						c-1.03,0.6-1.47,1.41-1.34,2.47c0.12,1.02,1.49,2.69,4.06,4.96c6.26,5.58,10.28,9.93,11.97,12.92
						c1.68,2.96,2.02,5.66,1.03,8.02c-0.99,2.36-3.09,4.48-6.23,6.31c-3.7,2.15-8.21,3.56-13.38,4.18
						c-5.18,0.63-10.5,0.34-15.83-0.86c-5.34-1.2-10.93-3.48-16.6-6.76c-9.96-5.75-15.02-10.89-15.05-15.28
						c-0.02-4.31,2.57-8.33,7.7-11.97l17.81,9.08c-2.31,1.81-3.64,3.49-3.95,5c-0.51,2.56,1.06,4.92,4.67,7
						c2.7,1.56,5.45,2.41,8.21,2.52c2.78,0.11,5.05-0.33,6.76-1.33c1.62-0.94,2.37-2.22,2.22-3.77c-0.14-1.53-2.13-4-6.05-7.56
						c-6.17-5.58-9.52-10.28-9.99-13.97c-0.45-3.63,1.59-6.79,6.07-9.39c2.95-1.71,6.65-2.85,11-3.38c4.34-0.53,9.07-0.23,14.06,0.9
						C202.93,138.5,208.57,140.85,214.68,144.38z"/>
				</g>
				<g>
					<path class="st19" d="M207.48,176.78c-1.05,2.47-3.23,4.68-6.5,6.58c-3.84,2.23-8.51,3.69-13.88,4.34
						c-5.37,0.65-10.89,0.35-16.39-0.89c-5.47-1.23-11.17-3.55-16.95-6.89c-10.16-5.86-15.32-11.14-15.34-15.69
						c-0.03-4.55,2.74-8.77,8.25-12.57l0.32-0.22l19.29,9.83l-0.28,0.21c-2.37,1.81-3.73,3.47-4.03,4.94
						c-0.48,2.37,1,4.57,4.38,6.52c2.52,1.46,5.07,2.25,7.57,2.35c2.51,0.1,4.47-0.27,5.99-1.16c1.43-0.83,2.07-1.93,1.93-3.34
						c-0.14-1.4-2.12-3.86-5.9-7.27c-6.25-5.67-9.66-10.46-10.14-14.25c-0.48-3.8,1.67-7.11,6.35-9.84
						c3.09-1.8,6.96-2.99,11.51-3.54c4.53-0.56,9.46-0.24,14.62,0.93c5.14,1.16,10.9,3.57,17.1,7.15c7.63,4.4,12.1,8.66,13.3,12.63
						c1.21,4-0.95,8.07-6.37,12.11l-0.33,0.24l-19.04-9.78l0.26-0.21c2.12-1.75,3.06-3.38,2.81-4.85c-0.25-1.47-1.65-2.96-4.14-4.4
						c-2.04-1.18-4.01-1.82-5.87-1.92c-1.84-0.09-3.31,0.2-4.51,0.89c-0.81,0.47-1.15,1.14-1.05,2.02c0.08,0.63,0.81,1.96,3.91,4.68
						c6.3,5.63,10.37,10.02,12.08,13.05C208.17,171.51,208.52,174.32,207.48,176.78z M186.9,187.14c5.17-0.62,9.67-2.03,13.38-4.18
						c3.14-1.82,5.24-3.95,6.23-6.31c1-2.36,0.65-5.06-1.03-8.02c-1.69-2.99-5.72-7.34-11.97-12.92c-2.58-2.27-3.94-3.94-4.06-4.96
						c-0.13-1.06,0.31-1.87,1.34-2.47c1.4-0.81,3.18-1.16,5.3-1.05c2.09,0.11,4.27,0.81,6.48,2.08c2.67,1.54,4.15,3.14,4.43,4.76
						c0.27,1.55-0.65,3.24-2.73,5.02l17.58,9.03c5.01-3.83,6.98-7.67,5.85-11.41c-1.15-3.86-5.53-8-13.01-12.32
						c-6.11-3.53-11.75-5.89-16.76-7.02c-4.98-1.13-9.71-1.43-14.06-0.9c-4.35,0.53-8.05,1.67-11,3.38
						c-4.48,2.6-6.52,5.76-6.07,9.39c0.47,3.69,3.82,8.39,9.99,13.97c3.92,3.56,5.91,6.03,6.05,7.56c0.16,1.56-0.6,2.83-2.22,3.77
						c-1.71,1-3.99,1.44-6.76,1.33c-2.76-0.11-5.51-0.96-8.21-2.52c-3.61-2.08-5.18-4.44-4.67-7c0.31-1.51,1.64-3.19,3.95-5
						l-17.81-9.08c-5.13,3.63-7.72,7.65-7.7,11.97c0.03,4.39,5.09,9.53,15.05,15.28c5.68,3.28,11.26,5.56,16.6,6.76
						C176.39,187.47,181.72,187.76,186.9,187.14"/>
				</g>
			</g>
		</g>
	</g>
	<g>
		<g>
			<g class="st0">
				<g>
					<polygon class="st21" points="120.6,88.88 62.28,122.78 45.52,113.1 55.92,80.65 22.72,99.94 6.17,90.38 64.49,56.49 
						81.09,66.07 70.56,98.74 104,79.3 					"/>
				</g>
				<g>
					<path class="st22" d="M104,78.49l18.01,10.4L62.28,123.6l-17.85-10.3l9.91-30.91l-31.62,18.38L4.75,90.39l59.73-34.71
						l17.69,10.21L72.14,97L104,78.49z M62.28,122.78l58.32-33.89L104,79.3L70.56,98.74l10.53-32.67l-16.6-9.58L6.17,90.38
						l16.56,9.56l33.2-19.29L45.52,113.1L62.28,122.78"/>
				</g>
				<g>
					<path class="st22" d="M134.62,111.65c4.84,2.79,7.16,5.53,6.89,8.13c-0.26,2.59-3.59,5.76-9.91,9.43
						c-4.74,2.76-8.71,4.52-11.79,5.22c-3.12,0.72-6,0.85-8.56,0.38c-2.57-0.46-5.74-1.79-9.66-4.06l-4.86-2.81l32.96-19.15
						L134.62,111.65z M119.44,133.9c2.96-0.67,6.81-2.39,11.46-5.09c6.14-3.57,9.37-6.62,9.62-9.06c0.24-2.43-1.98-5.01-6.6-7.69
						l-4.23-2.44l-31.55,18.34l4.15,2.4c3.75,2.17,6.87,3.49,9.25,3.91C113.89,134.69,116.55,134.57,119.44,133.9"/>
				</g>
				<g>
					<path class="st21" d="M159.6,131.81c-2.59,2.62-5.92,5.12-9.89,7.43c-6.24,3.62-11.85,6.05-16.68,7.22
						c-4.84,1.16-9.73,1.7-14.55,1.58c-4.81-0.12-9.1-0.79-12.73-2.01c-5.04-1.68-9.22-3.48-12.45-5.34l-26.92-15.54l58.32-33.89
						l26.92,15.54c5.31,3.06,8.92,5.99,10.75,8.69c1.82,2.69,2.47,5.46,1.93,8.23C163.76,126.48,162.18,129.21,159.6,131.81z
						 M119.82,134.43c3.08-0.7,7.05-2.46,11.79-5.22c6.32-3.67,9.65-6.84,9.91-9.43c0.27-2.6-2.05-5.34-6.89-8.13l-4.94-2.85
						l-32.96,19.15l4.86,2.81c3.93,2.27,7.09,3.59,9.66,4.06C113.81,135.28,116.69,135.15,119.82,134.43"/>
				</g>
				<g>
					<path class="st22" d="M160.47,132.1c-2.63,2.66-6.02,5.2-10.05,7.55c-6.33,3.68-12.05,6.14-17.01,7.34
						c-4.96,1.2-10,1.74-14.97,1.63c-4.97-0.12-9.4-0.82-13.19-2.09c-5.12-1.71-9.37-3.53-12.66-5.43l-27.63-15.95l59.73-34.71
						l27.63,15.95c5.4,3.12,9.09,6.11,10.98,8.89c1.88,2.78,2.55,5.64,1.99,8.5C164.74,126.63,163.11,129.43,160.47,132.1z
						 M133.02,146.46c4.84-1.17,10.45-3.59,16.68-7.22c3.97-2.31,7.3-4.81,9.89-7.43c2.58-2.6,4.16-5.33,4.7-8.1
						c0.54-2.76-0.11-5.53-1.93-8.23c-1.83-2.7-5.44-5.63-10.75-8.69L124.7,91.25l-58.32,33.89l26.92,15.54
						c3.22,1.86,7.41,3.66,12.45,5.34c3.63,1.22,7.92,1.89,12.73,2.01C123.3,148.15,128.19,147.62,133.02,146.46"/>
				</g>
				<g>
					<path class="st22" d="M202.26,171.43c-1.04,2.47-3.22,4.68-6.49,6.58c-3.84,2.23-8.51,3.69-13.89,4.34
						c-5.37,0.65-10.89,0.35-16.39-0.89c-5.47-1.23-11.18-3.55-16.95-6.89c-10.15-5.86-15.32-11.14-15.34-15.69
						c-0.03-4.54,2.75-8.77,8.25-12.57l0.34-0.22l19.29,9.83l-0.29,0.22c-2.38,1.8-3.74,3.47-4.03,4.93
						c-0.48,2.38,0.99,4.57,4.38,6.52c2.52,1.46,5.07,2.24,7.57,2.35c2.51,0.1,4.47-0.28,5.99-1.16c1.44-0.84,2.07-1.93,1.93-3.34
						c-0.14-1.41-2.12-3.86-5.9-7.28c-6.26-5.66-9.66-10.45-10.14-14.24c-0.48-3.8,1.66-7.12,6.35-9.84
						c3.09-1.8,6.96-2.99,11.51-3.54c4.54-0.55,9.47-0.24,14.63,0.93c5.14,1.16,10.89,3.57,17.1,7.15
						c7.64,4.41,12.11,8.66,13.3,12.63c1.2,3.99-0.94,8.07-6.38,12.11l-0.32,0.25l-19.04-9.78l0.25-0.21
						c2.12-1.74,3.07-3.37,2.82-4.85c-0.26-1.48-1.65-2.96-4.14-4.4c-2.04-1.18-4.01-1.82-5.87-1.92c-1.84-0.09-3.31,0.2-4.51,0.89
						c-0.81,0.47-1.16,1.13-1.05,2.02c0.07,0.63,0.81,1.96,3.9,4.68c6.3,5.63,10.37,10.02,12.09,13.06
						C202.95,166.16,203.31,168.96,202.26,171.43z M181.68,181.78c5.18-0.63,9.67-2.03,13.37-4.18c3.14-1.82,5.24-3.95,6.24-6.31
						c0.99-2.36,0.65-5.06-1.03-8.01c-1.7-2.99-5.72-7.34-11.98-12.92c-2.57-2.26-3.94-3.93-4.06-4.96
						c-0.12-1.06,0.31-1.87,1.34-2.47c1.4-0.81,3.18-1.16,5.3-1.05c2.09,0.1,4.27,0.81,6.48,2.08c2.66,1.54,4.16,3.14,4.43,4.75
						c0.26,1.56-0.66,3.24-2.73,5.03l17.58,9.03c5.01-3.83,6.98-7.67,5.85-11.42c-1.16-3.85-5.54-8-13.02-12.32
						c-6.1-3.52-11.74-5.89-16.76-7.02c-4.98-1.13-9.71-1.43-14.06-0.9c-4.35,0.53-8.05,1.67-11,3.38c-4.48,2.6-6.52,5.76-6.06,9.39
						c0.45,3.69,3.81,8.4,9.97,13.97c3.93,3.56,5.91,6.03,6.06,7.56c0.15,1.56-0.6,2.83-2.23,3.78c-1.71,1-3.99,1.44-6.77,1.32
						c-2.74-0.11-5.51-0.96-8.2-2.52c-3.61-2.09-5.18-4.44-4.67-7c0.3-1.52,1.64-3.2,3.95-5l-17.82-9.08
						c-5.13,3.63-7.71,7.65-7.68,11.97c0.02,4.39,5.08,9.53,15.04,15.28c5.68,3.28,11.27,5.55,16.62,6.76
						C171.18,182.12,176.5,182.4,181.68,181.78"/>
				</g>
				<g>
					<path class="st21" d="M209.46,139.02c7.48,4.32,11.86,8.46,13.02,12.32c1.13,3.75-0.84,7.59-5.85,11.42l-17.58-9.03
						c2.08-1.78,3-3.47,2.73-5.03c-0.27-1.61-1.77-3.21-4.43-4.75c-2.21-1.28-4.4-1.98-6.48-2.08c-2.13-0.11-3.91,0.24-5.3,1.05
						c-1.03,0.6-1.46,1.4-1.34,2.47c0.13,1.03,1.49,2.7,4.06,4.96c6.26,5.58,10.28,9.93,11.98,12.92c1.67,2.96,2.02,5.65,1.03,8.01
						c-1,2.36-3.1,4.49-6.24,6.31c-3.7,2.15-8.2,3.56-13.37,4.18c-5.18,0.62-10.5,0.34-15.82-0.87c-5.35-1.21-10.93-3.48-16.62-6.76
						c-9.96-5.75-15.02-10.89-15.04-15.28c-0.02-4.31,2.56-8.33,7.68-11.97l17.82,9.08c-2.31,1.8-3.65,3.49-3.95,5
						c-0.51,2.56,1.05,4.91,4.67,7c2.69,1.56,5.46,2.4,8.2,2.52c2.78,0.11,5.06-0.33,6.77-1.32c1.62-0.94,2.37-2.22,2.23-3.78
						c-0.15-1.53-2.13-4-6.06-7.56c-6.16-5.58-9.52-10.28-9.97-13.97c-0.46-3.63,1.58-6.79,6.06-9.39c2.95-1.71,6.65-2.85,11-3.38
						c4.35-0.53,9.08-0.23,14.06,0.9C197.72,133.13,203.36,135.5,209.46,139.02z"/>
				</g>
			</g>
		</g>
	</g>
	<g>
		<g>
			<g class="st0">
				<g>
					<path class="st23" d="M109.21,69.23l18.02,10.4l-59.73,34.71l-17.85-10.31l9.91-30.91L27.93,91.51L9.96,81.13l59.73-34.71
						l17.69,10.21L77.34,87.75L109.21,69.23z M67.49,113.53l58.33-33.9l-16.6-9.58L75.77,89.49L86.3,56.82l-16.6-9.58l-58.33,33.9
						l16.56,9.56l33.2-19.29l-10.41,32.45L67.49,113.53"/>
				</g>
				<g>
					<polygon class="st24" points="125.81,79.64 67.49,113.53 50.72,103.85 61.13,71.4 27.93,90.69 11.37,81.13 69.7,47.24 
						86.3,56.82 75.77,89.49 109.21,70.05 					"/>
				</g>
				<g>
					<path class="st23" d="M139.84,102.4c4.84,2.79,7.16,5.53,6.89,8.13c-0.27,2.59-3.6,5.76-9.91,9.43
						c-4.74,2.76-8.71,4.52-11.79,5.22c-3.12,0.72-6.01,0.84-8.58,0.38c-2.56-0.46-5.72-1.79-9.66-4.06l-4.85-2.8l32.96-19.15
						L139.84,102.4z M124.66,124.65c2.95-0.68,6.8-2.39,11.45-5.09c6.13-3.56,9.37-6.61,9.62-9.05c0.24-2.43-1.98-5.02-6.6-7.69
						l-4.23-2.44l-31.54,18.33l4.14,2.39c3.76,2.17,6.87,3.49,9.25,3.91C119.1,125.44,121.76,125.32,124.66,124.65"/>
				</g>
				<g>
					<path class="st24" d="M164.82,122.56c-2.59,2.62-5.93,5.12-9.9,7.43c-6.23,3.62-11.85,6.05-16.68,7.21
						c-4.83,1.16-9.73,1.7-14.55,1.58c-4.81-0.11-9.09-0.79-12.73-2.01c-5.04-1.68-9.22-3.47-12.45-5.33L71.59,115.9L129.91,82
						l26.92,15.54c5.3,3.06,8.91,5.98,10.74,8.68c1.82,2.7,2.47,5.47,1.93,8.23C168.98,117.23,167.39,119.96,164.82,122.56z
						 M125.03,125.19c3.08-0.71,7.04-2.47,11.79-5.22c6.31-3.67,9.65-6.84,9.91-9.43c0.27-2.6-2.05-5.34-6.89-8.13l-4.94-2.85
						l-32.96,19.15l4.85,2.8c3.93,2.27,7.1,3.6,9.66,4.06C119.02,126.03,121.91,125.91,125.03,125.19"/>
				</g>
				<g>
					<path class="st23" d="M165.68,122.85c-2.63,2.66-6.02,5.2-10.06,7.55c-6.32,3.68-12.04,6.14-17,7.34
						c-4.96,1.19-10.01,1.74-14.97,1.62c-4.97-0.12-9.4-0.82-13.19-2.09c-5.11-1.7-9.37-3.53-12.66-5.43L70.17,115.9l59.73-34.71
						l27.63,15.95c5.4,3.12,9.09,6.11,10.96,8.89c1.88,2.78,2.56,5.64,2,8.5C169.95,117.38,168.32,120.18,165.68,122.85z
						 M138.24,137.2c4.83-1.16,10.45-3.59,16.68-7.21c3.98-2.31,7.31-4.81,9.91-7.43c2.58-2.61,4.16-5.33,4.69-8.1
						c0.54-2.76-0.11-5.53-1.93-8.23c-1.83-2.7-5.44-5.63-10.74-8.68L129.91,82l-58.33,33.9l26.92,15.54
						c3.22,1.86,7.41,3.65,12.45,5.33c3.64,1.22,7.93,1.89,12.73,2.01C128.51,138.9,133.41,138.37,138.24,137.2"/>
				</g>
				<g>
					<path class="st24" d="M214.68,129.78c7.48,4.32,11.86,8.46,13.01,12.32c1.13,3.75-0.85,7.59-5.85,11.41l-17.58-9.03
						c2.08-1.78,3-3.47,2.73-5.02c-0.28-1.61-1.76-3.21-4.43-4.76c-2.21-1.28-4.39-1.98-6.48-2.08c-2.13-0.11-3.91,0.24-5.3,1.05
						c-1.03,0.6-1.47,1.41-1.34,2.47c0.12,1.02,1.49,2.69,4.06,4.96c6.26,5.58,10.28,9.93,11.97,12.92
						c1.68,2.96,2.02,5.66,1.03,8.02c-0.99,2.36-3.09,4.48-6.23,6.31c-3.7,2.15-8.21,3.56-13.38,4.18
						c-5.18,0.63-10.5,0.34-15.83-0.86c-5.34-1.2-10.93-3.48-16.6-6.76c-9.96-5.75-15.02-10.89-15.05-15.28
						c-0.02-4.31,2.57-8.33,7.7-11.97l17.81,9.08c-2.31,1.81-3.64,3.49-3.95,5c-0.51,2.56,1.06,4.92,4.67,7
						c2.7,1.56,5.45,2.41,8.21,2.52c2.78,0.11,5.05-0.33,6.76-1.33c1.62-0.94,2.37-2.22,2.22-3.77c-0.14-1.53-2.13-4-6.05-7.56
						c-6.17-5.58-9.52-10.28-9.99-13.97c-0.45-3.63,1.59-6.79,6.07-9.39c2.95-1.71,6.65-2.85,11-3.38c4.34-0.53,9.07-0.23,14.06,0.9
						C202.93,123.89,208.57,126.25,214.68,129.78z"/>
				</g>
				<g>
					<path class="st23" d="M207.48,162.18c-1.05,2.47-3.23,4.68-6.5,6.58c-3.84,2.23-8.51,3.69-13.88,4.34
						c-5.37,0.65-10.89,0.35-16.39-0.89c-5.48-1.23-11.18-3.55-16.95-6.89c-10.16-5.86-15.32-11.14-15.34-15.69
						c-0.03-4.55,2.74-8.77,8.25-12.57l0.32-0.22l19.29,9.83l-0.28,0.21c-2.37,1.81-3.73,3.47-4.03,4.94
						c-0.48,2.37,1,4.57,4.38,6.52c2.52,1.46,5.07,2.25,7.57,2.35c2.51,0.1,4.47-0.27,5.99-1.16c1.43-0.83,2.07-1.93,1.93-3.34
						c-0.14-1.4-2.12-3.86-5.9-7.27c-6.25-5.67-9.66-10.46-10.14-14.25c-0.48-3.8,1.67-7.11,6.35-9.84
						c3.09-1.8,6.96-2.99,11.51-3.54c4.53-0.56,9.46-0.24,14.62,0.93c5.14,1.16,10.9,3.57,17.1,7.15c7.63,4.4,12.1,8.66,13.3,12.63
						c1.21,4-0.95,8.07-6.37,12.11l-0.33,0.24l-19.04-9.78l0.26-0.21c2.12-1.75,3.06-3.38,2.81-4.85c-0.25-1.47-1.65-2.96-4.14-4.4
						c-2.04-1.18-4.01-1.82-5.87-1.92c-1.84-0.09-3.31,0.2-4.51,0.89c-0.81,0.47-1.15,1.14-1.05,2.02c0.08,0.63,0.81,1.96,3.91,4.68
						c6.3,5.63,10.37,10.02,12.08,13.05C208.17,156.91,208.52,159.71,207.48,162.18z M186.9,172.53c5.17-0.62,9.68-2.03,13.38-4.18
						c3.14-1.82,5.24-3.95,6.23-6.31c1-2.36,0.65-5.06-1.03-8.02c-1.69-2.99-5.72-7.34-11.97-12.92c-2.58-2.27-3.94-3.94-4.06-4.96
						c-0.13-1.06,0.31-1.87,1.34-2.47c1.4-0.81,3.18-1.16,5.3-1.05c2.09,0.11,4.27,0.81,6.48,2.08c2.67,1.54,4.15,3.14,4.43,4.76
						c0.27,1.55-0.65,3.24-2.73,5.02l17.58,9.03c5.01-3.83,6.98-7.67,5.85-11.41c-1.15-3.86-5.53-8-13.01-12.32
						c-6.11-3.53-11.75-5.89-16.76-7.02c-4.98-1.13-9.71-1.43-14.06-0.9c-4.35,0.53-8.05,1.67-11,3.38
						c-4.48,2.6-6.52,5.76-6.07,9.39c0.47,3.69,3.82,8.39,9.99,13.97c3.92,3.56,5.91,6.03,6.05,7.56c0.16,1.56-0.6,2.83-2.22,3.77
						c-1.71,1-3.99,1.44-6.76,1.33c-2.76-0.11-5.51-0.96-8.21-2.52c-3.61-2.08-5.18-4.44-4.67-7c0.31-1.51,1.64-3.19,3.95-5
						l-17.81-9.08c-5.13,3.63-7.72,7.65-7.7,11.97c0.03,4.39,5.09,9.53,15.05,15.28c5.68,3.28,11.26,5.56,16.6,6.76
						C176.39,172.86,181.72,173.15,186.9,172.53"/>
				</g>
			</g>
		</g>
	</g>
	<g>
		<g>
			<g>
				<path class="st25" d="M109.22,61.93l18.02,10.4L67.5,107.05L49.65,96.74l9.91-30.91L27.94,84.21L9.97,73.83L69.7,39.12
					l17.69,10.21L77.35,80.45L109.22,61.93z M67.49,106.23l58.32-33.89l-16.6-9.58L75.77,82.19L86.3,49.52l-16.6-9.58L11.38,73.83
					l16.56,9.56l33.2-19.29L50.73,96.55L67.49,106.23"/>
			</g>
			<g>
				<path class="st25" d="M207.48,154.88c-1.04,2.46-3.23,4.68-6.5,6.58c-3.84,2.23-8.51,3.69-13.88,4.34
					c-5.37,0.65-10.88,0.35-16.39-0.89c-5.47-1.23-11.18-3.55-16.95-6.89c-10.16-5.86-15.32-11.14-15.34-15.69
					c-0.03-4.55,2.75-8.77,8.25-12.57l0.33-0.23l19.29,9.83l-0.28,0.21c-2.38,1.81-3.74,3.47-4.03,4.94
					c-0.48,2.37,0.99,4.57,4.37,6.52c2.52,1.46,5.07,2.24,7.58,2.35c2.51,0.1,4.47-0.27,5.98-1.15c1.44-0.84,2.07-1.93,1.93-3.34
					c-0.14-1.41-2.12-3.86-5.9-7.28c-6.26-5.66-9.66-10.46-10.14-14.25c-0.47-3.81,1.67-7.11,6.35-9.84
					c3.09-1.8,6.96-2.99,11.51-3.54c4.54-0.56,9.46-0.25,14.63,0.92c5.14,1.16,10.89,3.58,17.1,7.16c7.63,4.4,12.11,8.65,13.3,12.63
					c1.2,4-0.95,8.07-6.38,12.12l-0.32,0.24l-19.04-9.78l0.26-0.21c2.11-1.74,3.05-3.37,2.8-4.85c-0.25-1.47-1.65-2.96-4.14-4.4
					c-2.04-1.18-4.01-1.82-5.87-1.92c-1.83-0.1-3.31,0.2-4.5,0.88c-0.82,0.48-1.16,1.14-1.05,2.02c0.07,0.64,0.81,1.96,3.9,4.69
					c6.31,5.63,10.37,10.02,12.09,13.05C208.17,149.6,208.52,152.41,207.48,154.88z M186.9,165.23c5.18-0.63,9.68-2.03,13.38-4.18
					c3.14-1.82,5.24-3.95,6.24-6.31c0.99-2.36,0.65-5.06-1.03-8.02c-1.7-2.99-5.72-7.33-11.97-12.92c-2.58-2.27-3.95-3.93-4.07-4.96
					c-0.13-1.07,0.31-1.87,1.34-2.47c1.39-0.81,3.17-1.16,5.3-1.05c2.09,0.11,4.27,0.81,6.48,2.09c2.67,1.54,4.16,3.14,4.44,4.75
					c0.26,1.56-0.66,3.24-2.74,5.02l17.58,9.03c5.01-3.83,6.98-7.66,5.85-11.41c-1.16-3.85-5.54-8-13.02-12.32
					c-6.11-3.53-11.74-5.89-16.75-7.03c-4.98-1.13-9.72-1.43-14.06-0.9c-4.35,0.53-8.05,1.67-11,3.38c-4.47,2.6-6.52,5.76-6.06,9.39
					c0.47,3.69,3.82,8.39,9.98,13.98c3.93,3.55,5.91,6.03,6.06,7.55c0.15,1.56-0.6,2.83-2.23,3.78c-1.71,0.99-3.99,1.44-6.76,1.32
					c-2.76-0.11-5.52-0.96-8.22-2.52c-3.61-2.08-5.18-4.44-4.67-7c0.32-1.52,1.64-3.2,3.96-5.01l-17.82-9.08
					c-5.13,3.63-7.71,7.65-7.69,11.96c0.02,4.39,5.09,9.54,15.05,15.29c5.68,3.28,11.27,5.55,16.61,6.75
					C176.4,165.56,181.72,165.86,186.9,165.23"/>
			</g>
			<g>
				<path class="st26" d="M214.68,122.48c7.48,4.32,11.86,8.46,13.02,12.32c1.12,3.75-0.85,7.59-5.85,11.41l-17.58-9.03
					c2.08-1.78,3-3.47,2.74-5.02c-0.28-1.61-1.77-3.21-4.44-4.75c-2.21-1.28-4.39-1.98-6.48-2.09c-2.13-0.11-3.91,0.25-5.3,1.05
					c-1.03,0.6-1.47,1.41-1.34,2.47c0.12,1.02,1.49,2.69,4.07,4.96c6.25,5.58,10.28,9.93,11.97,12.92c1.67,2.96,2.02,5.66,1.03,8.02
					c-1,2.36-3.1,4.49-6.24,6.31c-3.7,2.15-8.2,3.55-13.38,4.18c-5.18,0.63-10.5,0.33-15.82-0.87c-5.34-1.2-10.93-3.48-16.61-6.75
					c-9.96-5.75-15.02-10.89-15.05-15.29c-0.02-4.31,2.56-8.33,7.69-11.96l17.82,9.08c-2.31,1.81-3.64,3.49-3.96,5.01
					c-0.51,2.56,1.06,4.92,4.67,7c2.7,1.56,5.46,2.4,8.22,2.52c2.77,0.11,5.05-0.33,6.76-1.32c1.63-0.95,2.37-2.22,2.23-3.78
					c-0.15-1.53-2.13-4-6.06-7.55c-6.16-5.58-9.51-10.28-9.98-13.98c-0.45-3.63,1.59-6.79,6.06-9.39c2.96-1.72,6.65-2.85,11-3.38
					c4.34-0.53,9.08-0.23,14.06,0.9C202.94,116.59,208.57,118.95,214.68,122.48z"/>
			</g>
			<g>
				<path class="st25" d="M139.84,95.1c4.84,2.79,7.16,5.53,6.89,8.13c-0.26,2.58-3.6,5.76-9.91,9.43
					c-4.75,2.76-8.72,4.52-11.79,5.23c-3.11,0.72-6,0.84-8.57,0.38c-2.57-0.46-5.73-1.79-9.66-4.06l-4.85-2.8l32.96-19.15
					L139.84,95.1z M124.66,117.35c2.95-0.68,6.8-2.39,11.46-5.1c6.13-3.56,9.37-6.61,9.62-9.05c0.24-2.43-1.98-5.02-6.6-7.69
					l-4.23-2.44l-31.54,18.33l4.14,2.39c3.76,2.17,6.87,3.49,9.24,3.92C119.1,118.14,121.76,118.01,124.66,117.35"/>
			</g>
			<g>
				<path class="st26" d="M164.82,115.26c-2.59,2.62-5.92,5.11-9.9,7.42c-6.24,3.62-11.85,6.05-16.68,7.22
					c-4.83,1.16-9.72,1.69-14.54,1.58c-4.81-0.11-9.09-0.79-12.73-2.01c-5.04-1.68-9.22-3.47-12.45-5.33l-26.92-15.54l58.32-33.89
					l26.92,15.54c5.3,3.06,8.92,5.98,10.74,8.68c1.83,2.69,2.47,5.46,1.94,8.22C168.98,109.93,167.39,112.66,164.82,115.26z
					 M125.03,117.89c3.08-0.71,7.04-2.47,11.79-5.23c6.31-3.67,9.65-6.84,9.91-9.43c0.27-2.6-2.05-5.34-6.89-8.13l-4.94-2.85
					l-32.96,19.15l4.85,2.8c3.93,2.27,7.09,3.59,9.66,4.06C119.03,118.73,121.92,118.6,125.03,117.89"/>
			</g>
			<g>
				<path class="st25" d="M165.69,115.55c-2.63,2.66-6.02,5.2-10.06,7.55c-6.32,3.68-12.04,6.15-17,7.34
					c-4.97,1.19-10.01,1.74-14.97,1.62c-4.98-0.12-9.41-0.82-13.19-2.08c-5.11-1.71-9.37-3.54-12.65-5.43l-27.63-15.95l59.73-34.71
					l27.63,15.95c5.4,3.12,9.09,6.11,10.96,8.89c1.88,2.78,2.55,5.65,2,8.5C169.95,110.08,168.33,112.87,165.69,115.55z
					 M138.24,129.9c4.84-1.17,10.45-3.59,16.68-7.22c3.98-2.31,7.3-4.81,9.9-7.42c2.58-2.61,4.16-5.33,4.7-8.11
					c0.54-2.76-0.11-5.53-1.94-8.22c-1.82-2.71-5.44-5.63-10.74-8.68L129.91,74.7l-58.32,33.89l26.92,15.54
					c3.22,1.86,7.41,3.65,12.45,5.33c3.64,1.22,7.92,1.9,12.73,2.01C128.51,131.6,133.41,131.07,138.24,129.9"/>
			</g>
			<g>
				<polygon class="st26" points="125.81,72.34 67.49,106.23 50.73,96.55 61.14,64.09 27.94,83.39 11.38,73.83 69.7,39.94 
					86.3,49.52 75.77,82.19 109.21,62.75 				"/>
			</g>
		</g>
	</g>
	<g>
		<g>
			<g class="st0">
				<g>
					<path class="st27" d="M109.21,54.63l18.02,10.4L67.49,99.74L49.64,89.44l9.91-30.91L27.93,76.9L9.96,66.53l59.73-34.71
						l17.69,10.21L77.35,73.14L109.21,54.63z M67.49,98.92l58.33-33.9l-16.6-9.58L75.77,74.88L86.3,42.22l-16.6-9.58l-58.33,33.9
						l16.56,9.56l33.2-19.29L50.72,89.24L67.49,98.92"/>
				</g>
				<g>
					<polygon class="st28" points="125.81,65.03 67.49,98.92 50.72,89.24 61.13,56.79 27.93,76.08 11.37,66.53 69.7,32.63 
						86.3,42.22 75.77,74.88 109.21,55.44 					"/>
				</g>
				<g>
					<path class="st27" d="M165.69,108.24c-2.64,2.67-6.02,5.2-10.06,7.55c-6.32,3.68-12.04,6.14-17,7.34
						c-4.96,1.19-10.01,1.74-14.97,1.62c-4.97-0.12-9.4-0.82-13.19-2.09c-5.11-1.7-9.37-3.53-12.66-5.43l-27.63-15.95l59.73-34.71
						l27.63,15.95c5.4,3.12,9.09,6.11,10.97,8.88c1.87,2.79,2.55,5.65,1.99,8.5C169.95,102.77,168.32,105.57,165.69,108.24z
						 M138.24,122.6c4.84-1.17,10.45-3.59,16.68-7.21c3.98-2.31,7.31-4.81,9.9-7.43c2.58-2.61,4.16-5.33,4.69-8.1
						c0.54-2.76-0.11-5.53-1.93-8.23c-1.83-2.7-5.44-5.63-10.74-8.68L129.91,67.4l-58.33,33.89l26.92,15.54
						c3.22,1.86,7.41,3.65,12.45,5.33c3.64,1.22,7.93,1.89,12.73,2.01C128.51,124.29,133.41,123.76,138.24,122.6"/>
				</g>
				<g>
					<path class="st28" d="M164.82,107.95c-2.59,2.62-5.93,5.12-9.9,7.43c-6.23,3.62-11.84,6.05-16.68,7.21
						c-4.83,1.16-9.73,1.7-14.55,1.58c-4.81-0.11-9.09-0.79-12.73-2.01c-5.04-1.68-9.22-3.47-12.45-5.33l-26.92-15.54l58.33-33.9
						l26.92,15.54c5.3,3.06,8.91,5.98,10.74,8.68c1.82,2.7,2.47,5.46,1.93,8.23C168.98,102.62,167.39,105.35,164.82,107.95z
						 M125.03,110.58c3.08-0.71,7.04-2.47,11.79-5.22c6.31-3.67,9.65-6.84,9.91-9.43c0.27-2.6-2.05-5.34-6.89-8.13l-4.94-2.85
						l-32.96,19.15l4.85,2.8c3.93,2.27,7.09,3.59,9.66,4.06C119.02,111.42,121.91,111.3,125.03,110.58"/>
				</g>
				<g>
					<path class="st27" d="M139.84,87.79c4.84,2.79,7.16,5.53,6.89,8.13c-0.27,2.59-3.6,5.76-9.91,9.43
						c-4.74,2.76-8.71,4.52-11.79,5.22c-3.12,0.72-6.01,0.84-8.58,0.38c-2.57-0.47-5.72-1.79-9.66-4.06l-4.85-2.8l32.96-19.15
						L139.84,87.79z M124.66,110.04c2.95-0.68,6.8-2.39,11.45-5.09c6.14-3.57,9.37-6.61,9.62-9.05c0.24-2.43-1.98-5.02-6.6-7.69
						l-4.23-2.44l-31.54,18.33l4.14,2.39c3.76,2.17,6.87,3.49,9.25,3.91C119.1,110.83,121.76,110.71,124.66,110.04"/>
				</g>
				<g>
					<path class="st28" d="M214.68,115.17c7.48,4.32,11.86,8.46,13.01,12.32c1.13,3.75-0.84,7.58-5.85,11.41l-17.58-9.03
						c2.08-1.78,3-3.47,2.73-5.02c-0.28-1.61-1.76-3.21-4.43-4.76c-2.21-1.28-4.39-1.98-6.48-2.08c-2.13-0.11-3.91,0.24-5.3,1.05
						c-1.03,0.6-1.47,1.41-1.34,2.47c0.12,1.02,1.49,2.69,4.06,4.96c6.26,5.58,10.28,9.93,11.97,12.92
						c1.68,2.96,2.02,5.66,1.03,8.02c-0.99,2.36-3.09,4.48-6.23,6.31c-3.7,2.15-8.2,3.55-13.38,4.18
						c-5.18,0.63-10.5,0.34-15.83-0.86c-5.34-1.2-10.93-3.48-16.6-6.76c-9.96-5.75-15.02-10.89-15.05-15.28
						c-0.02-4.31,2.57-8.33,7.7-11.97l17.81,9.08c-2.31,1.81-3.64,3.49-3.95,5c-0.51,2.56,1.06,4.92,4.67,7
						c2.7,1.56,5.45,2.41,8.21,2.52c2.78,0.11,5.05-0.33,6.76-1.33c1.62-0.94,2.37-2.22,2.22-3.77c-0.14-1.53-2.13-4-6.05-7.56
						c-6.17-5.58-9.52-10.28-9.98-13.98c-0.45-3.63,1.58-6.79,6.06-9.39c2.95-1.71,6.65-2.85,11-3.38c4.34-0.53,9.07-0.23,14.06,0.9
						C202.93,109.28,208.57,111.64,214.68,115.17z"/>
				</g>
				<g>
					<path class="st27" d="M207.48,147.57c-1.04,2.46-3.23,4.68-6.5,6.58c-3.84,2.23-8.51,3.69-13.88,4.34
						c-5.37,0.65-10.89,0.35-16.39-0.89c-5.47-1.23-11.18-3.55-16.95-6.89c-10.16-5.86-15.32-11.14-15.34-15.69
						c-0.03-4.55,2.74-8.77,8.25-12.57l0.32-0.22l19.29,9.82l-0.29,0.22c-2.37,1.81-3.73,3.47-4.03,4.94
						c-0.48,2.37,1,4.57,4.38,6.52c2.52,1.46,5.07,2.25,7.57,2.35c2.51,0.1,4.47-0.27,5.99-1.16c1.44-0.84,2.07-1.93,1.93-3.34
						c-0.14-1.4-2.12-3.86-5.9-7.27c-6.25-5.67-9.66-10.46-10.14-14.25c-0.48-3.8,1.67-7.11,6.35-9.84
						c3.09-1.8,6.96-2.99,11.51-3.54c4.53-0.56,9.46-0.24,14.62,0.93c5.14,1.16,10.9,3.57,17.1,7.15c7.63,4.4,12.1,8.66,13.3,12.63
						c1.21,4-0.95,8.07-6.37,12.11l-0.33,0.24l-19.04-9.78l0.26-0.21c2.12-1.75,3.06-3.38,2.81-4.85c-0.25-1.47-1.65-2.96-4.14-4.4
						c-2.04-1.18-4.01-1.82-5.87-1.92c-1.84-0.09-3.31,0.2-4.51,0.89c-0.81,0.47-1.15,1.14-1.05,2.02c0.08,0.63,0.81,1.96,3.91,4.68
						c6.3,5.63,10.37,10.02,12.08,13.05C208.17,142.3,208.52,145.1,207.48,147.57z M186.9,157.92c5.18-0.63,9.68-2.03,13.38-4.18
						c3.14-1.82,5.24-3.95,6.23-6.31c1-2.36,0.65-5.06-1.03-8.02c-1.69-2.99-5.72-7.34-11.97-12.92c-2.58-2.27-3.94-3.94-4.06-4.96
						c-0.13-1.06,0.31-1.87,1.34-2.47c1.4-0.81,3.18-1.16,5.3-1.05c2.09,0.11,4.27,0.81,6.48,2.08c2.67,1.54,4.15,3.14,4.43,4.76
						c0.27,1.55-0.65,3.24-2.73,5.02l17.58,9.03c5.01-3.83,6.98-7.67,5.85-11.41c-1.15-3.86-5.53-8-13.01-12.32
						c-6.11-3.53-11.75-5.89-16.76-7.02c-4.98-1.13-9.71-1.43-14.06-0.9c-4.35,0.53-8.05,1.67-11,3.38
						c-4.48,2.6-6.52,5.76-6.06,9.39c0.46,3.7,3.81,8.4,9.98,13.98c3.92,3.56,5.91,6.03,6.05,7.56c0.16,1.56-0.6,2.83-2.22,3.77
						c-1.71,1-3.99,1.44-6.76,1.33c-2.76-0.11-5.51-0.96-8.21-2.52c-3.61-2.08-5.18-4.44-4.67-7c0.31-1.51,1.64-3.19,3.95-5
						l-17.81-9.08c-5.13,3.63-7.72,7.65-7.7,11.97c0.03,4.39,5.09,9.53,15.05,15.28c5.68,3.28,11.26,5.56,16.6,6.76
						C176.39,158.26,181.72,158.55,186.9,157.92"/>
				</g>
			</g>
		</g>
	</g>
	<g>
		<g>
			<g class="st0">
				<g>
					<path class="st29" d="M109.21,47.33l18.02,10.4L67.5,92.44L49.65,82.13l9.91-30.91L27.94,69.6L9.97,59.22l59.73-34.71
						l17.69,10.21L77.35,65.84L109.21,47.33z M67.49,91.62l58.32-33.89l-16.6-9.58L75.77,67.58L86.3,34.92l-16.6-9.58L11.38,59.22
						l16.56,9.56l33.2-19.29L50.73,81.94L67.49,91.62"/>
				</g>
				<g>
					<polygon class="st30" points="125.81,57.73 67.49,91.62 50.73,81.94 61.14,49.49 27.94,68.78 11.38,59.22 69.7,25.33 
						86.3,34.92 75.77,67.58 109.21,48.15 					"/>
				</g>
				<g>
					<path class="st30" d="M164.82,100.66c-2.59,2.62-5.92,5.11-9.9,7.42c-6.24,3.62-11.85,6.05-16.68,7.22
						c-4.83,1.16-9.72,1.69-14.54,1.58c-4.81-0.11-9.09-0.79-12.73-2.01c-5.04-1.68-9.22-3.47-12.45-5.33L71.59,93.99l58.32-33.89
						l26.92,15.54c5.3,3.06,8.92,5.98,10.74,8.68c1.83,2.69,2.47,5.46,1.94,8.22C168.98,95.33,167.39,98.05,164.82,100.66z
						 M125.03,103.28c3.08-0.71,7.04-2.47,11.79-5.23c6.31-3.67,9.65-6.84,9.91-9.43c0.27-2.6-2.05-5.34-6.89-8.13l-4.94-2.85
						L101.95,96.8l4.85,2.8c3.93,2.27,7.09,3.59,9.66,4.06C119.03,104.12,121.92,104,125.03,103.28"/>
				</g>
				<g>
					<path class="st29" d="M165.69,100.94c-2.63,2.66-6.02,5.2-10.06,7.55c-6.32,3.68-12.04,6.15-17,7.34
						c-4.97,1.19-10.01,1.74-14.97,1.62c-4.98-0.12-9.41-0.82-13.19-2.09c-5.11-1.7-9.37-3.53-12.66-5.43L70.18,93.99l59.73-34.71
						l27.63,15.95c5.4,3.12,9.1,6.1,10.97,8.88c1.88,2.78,2.55,5.65,2,8.5C169.95,95.47,168.33,98.27,165.69,100.94z M138.24,115.3
						c4.84-1.17,10.45-3.59,16.68-7.22c3.98-2.31,7.3-4.81,9.9-7.42c2.58-2.61,4.16-5.33,4.7-8.11c0.54-2.76-0.11-5.53-1.94-8.22
						c-1.82-2.71-5.44-5.63-10.74-8.68L129.91,60.1L71.59,93.99l26.92,15.54c3.22,1.86,7.41,3.65,12.45,5.33
						c3.64,1.22,7.92,1.9,12.73,2.01C128.51,116.99,133.41,116.46,138.24,115.3"/>
				</g>
				<g>
					<path class="st29" d="M139.84,80.5c4.84,2.79,7.16,5.53,6.89,8.13c-0.26,2.58-3.6,5.76-9.91,9.43
						c-4.75,2.76-8.72,4.52-11.79,5.23c-3.11,0.72-6,0.84-8.57,0.38c-2.57-0.46-5.73-1.79-9.66-4.06l-4.85-2.8l32.96-19.15
						L139.84,80.5z M124.66,102.74c2.95-0.68,6.8-2.39,11.46-5.1c6.13-3.56,9.37-6.61,9.62-9.05c0.24-2.43-1.98-5.02-6.6-7.69
						l-4.23-2.44L103.37,96.8l4.14,2.39c3.76,2.17,6.87,3.49,9.24,3.92C119.1,103.53,121.76,103.41,124.66,102.74"/>
				</g>
				<g>
					<path class="st29" d="M207.48,140.27c-1.04,2.46-3.23,4.68-6.5,6.58c-3.84,2.23-8.51,3.69-13.88,4.34
						c-5.37,0.65-10.88,0.35-16.39-0.89c-5.47-1.23-11.18-3.55-16.95-6.89c-10.16-5.86-15.32-11.14-15.34-15.69
						c-0.03-4.55,2.75-8.77,8.25-12.57l0.33-0.23l19.29,9.83l-0.28,0.21c-2.38,1.81-3.74,3.47-4.03,4.94
						c-0.48,2.37,0.99,4.57,4.37,6.52c2.52,1.46,5.07,2.24,7.57,2.35c2.51,0.1,4.47-0.28,5.99-1.16c1.44-0.84,2.07-1.93,1.93-3.34
						c-0.14-1.41-2.12-3.86-5.9-7.28c-6.26-5.66-9.66-10.46-10.14-14.25c-0.47-3.81,1.67-7.11,6.35-9.84
						c3.09-1.8,6.96-2.99,11.51-3.54c4.54-0.56,9.46-0.25,14.63,0.92c5.14,1.16,10.89,3.58,17.1,7.16
						c7.63,4.4,12.11,8.65,13.3,12.63c1.2,4-0.95,8.07-6.38,12.12l-0.32,0.24l-19.04-9.78l0.26-0.21c2.11-1.74,3.05-3.37,2.8-4.85
						c-0.25-1.47-1.65-2.96-4.14-4.4c-2.04-1.18-4.01-1.82-5.87-1.92c-1.83-0.1-3.31,0.2-4.5,0.88c-0.82,0.48-1.16,1.14-1.05,2.02
						c0.07,0.64,0.81,1.96,3.9,4.69c6.31,5.63,10.37,10.02,12.08,13.05C208.17,135,208.52,137.8,207.48,140.27z M186.9,150.62
						c5.18-0.63,9.68-2.03,13.38-4.18c3.14-1.82,5.24-3.95,6.24-6.31c0.99-2.36,0.65-5.06-1.03-8.02
						c-1.7-2.99-5.72-7.33-11.97-12.92c-2.58-2.27-3.95-3.93-4.07-4.96c-0.13-1.07,0.31-1.87,1.34-2.47
						c1.39-0.81,3.17-1.16,5.3-1.05c2.09,0.11,4.27,0.81,6.48,2.09c2.67,1.54,4.16,3.14,4.44,4.75c0.26,1.56-0.66,3.24-2.74,5.02
						l17.58,9.03c5.01-3.83,6.98-7.66,5.85-11.41c-1.16-3.85-5.54-8-13.02-12.32c-6.11-3.53-11.74-5.89-16.75-7.03
						c-4.98-1.13-9.72-1.43-14.06-0.9c-4.35,0.53-8.05,1.67-11,3.38c-4.47,2.6-6.52,5.76-6.06,9.39c0.47,3.69,3.82,8.39,9.98,13.98
						c3.93,3.55,5.91,6.03,6.06,7.55c0.15,1.56-0.6,2.83-2.23,3.78c-1.71,0.99-3.99,1.44-6.76,1.32c-2.76-0.11-5.52-0.96-8.22-2.52
						c-3.61-2.08-5.18-4.44-4.67-7c0.32-1.52,1.64-3.2,3.96-5.01l-17.82-9.08c-5.12,3.63-7.71,7.65-7.69,11.96
						c0.02,4.39,5.09,9.54,15.05,15.29c5.68,3.28,11.27,5.55,16.61,6.75C176.4,150.95,181.72,151.25,186.9,150.62"/>
				</g>
				<g>
					<path class="st30" d="M214.68,107.87c7.48,4.32,11.86,8.46,13.02,12.32c1.12,3.75-0.85,7.59-5.85,11.41l-17.58-9.03
						c2.08-1.78,3-3.47,2.74-5.02c-0.28-1.61-1.77-3.21-4.44-4.75c-2.21-1.28-4.39-1.98-6.48-2.09c-2.13-0.11-3.91,0.25-5.3,1.05
						c-1.03,0.6-1.47,1.41-1.34,2.47c0.12,1.02,1.49,2.69,4.07,4.96c6.25,5.58,10.28,9.93,11.97,12.92
						c1.67,2.96,2.02,5.66,1.03,8.02c-1,2.36-3.1,4.49-6.24,6.31c-3.7,2.15-8.2,3.55-13.38,4.18c-5.18,0.63-10.5,0.33-15.82-0.87
						c-5.34-1.2-10.93-3.48-16.61-6.75c-9.96-5.75-15.02-10.89-15.05-15.29c-0.02-4.31,2.57-8.33,7.69-11.96l17.82,9.08
						c-2.31,1.81-3.64,3.49-3.96,5.01c-0.51,2.56,1.06,4.92,4.67,7c2.7,1.56,5.46,2.4,8.22,2.52c2.77,0.11,5.05-0.33,6.76-1.32
						c1.63-0.95,2.37-2.22,2.23-3.78c-0.15-1.53-2.13-4-6.06-7.55c-6.16-5.58-9.51-10.28-9.98-13.98c-0.45-3.63,1.59-6.79,6.06-9.39
						c2.95-1.71,6.65-2.85,11-3.38c4.34-0.53,9.08-0.23,14.06,0.9C202.94,101.98,208.57,104.34,214.68,107.87z"/>
				</g>
			</g>
		</g>
	</g>
	<g>
		<g>
			<g class="st0">
				<g>
					<polygon class="st31" points="125.81,50.42 67.49,84.32 50.72,74.64 61.13,42.18 27.93,61.48 11.37,51.92 69.7,18.02 
						86.3,27.61 75.77,60.28 109.21,40.84 					"/>
				</g>
				<g>
					<path class="st32" d="M165.69,93.64c-2.64,2.67-6.02,5.2-10.06,7.55c-6.32,3.68-12.04,6.14-17,7.34
						c-4.96,1.19-10.01,1.74-14.97,1.62c-4.97-0.12-9.4-0.82-13.19-2.09c-5.11-1.7-9.37-3.53-12.66-5.43L70.17,86.68l59.73-34.71
						l27.63,15.95c5.4,3.12,9.09,6.11,10.97,8.88c1.87,2.79,2.55,5.65,1.99,8.5C169.95,88.16,168.32,90.96,165.69,93.64z
						 M138.24,107.99c4.84-1.17,10.45-3.59,16.68-7.21c3.98-2.31,7.31-4.81,9.91-7.43c2.58-2.61,4.16-5.33,4.69-8.1
						c0.54-2.76-0.11-5.53-1.93-8.23c-1.83-2.7-5.44-5.63-10.74-8.68l-26.92-15.54L71.59,86.68l26.92,15.54
						c3.22,1.86,7.41,3.65,12.45,5.33c3.64,1.22,7.93,1.89,12.73,2.01C128.51,109.69,133.41,109.15,138.24,107.99"/>
				</g>
				<g>
					<path class="st31" d="M164.82,93.35c-2.59,2.62-5.93,5.12-9.9,7.43c-6.23,3.62-11.84,6.05-16.68,7.21
						c-4.83,1.16-9.73,1.7-14.55,1.58c-4.81-0.11-9.09-0.79-12.73-2.01c-5.04-1.68-9.22-3.47-12.45-5.33L71.59,86.68l58.33-33.9
						l26.92,15.54c5.3,3.06,8.91,5.98,10.74,8.68c1.82,2.7,2.47,5.46,1.93,8.23C168.98,88.02,167.39,90.74,164.82,93.35z
						 M125.03,95.97c3.08-0.71,7.04-2.47,11.79-5.22c6.31-3.67,9.65-6.84,9.91-9.43c0.27-2.6-2.05-5.34-6.89-8.13l-4.94-2.85
						l-32.96,19.15l4.85,2.8c3.93,2.27,7.09,3.59,9.66,4.06C119.02,96.82,121.91,96.69,125.03,95.97"/>
				</g>
				<g>
					<path class="st32" d="M139.84,73.19c4.84,2.79,7.16,5.53,6.89,8.13c-0.27,2.59-3.6,5.76-9.91,9.43
						c-4.74,2.76-8.71,4.52-11.79,5.22c-3.12,0.72-6.01,0.84-8.58,0.38c-2.57-0.47-5.72-1.79-9.66-4.06l-4.85-2.8l32.96-19.15
						L139.84,73.19z M124.66,95.43c2.95-0.68,6.8-2.39,11.45-5.09c6.14-3.57,9.37-6.61,9.62-9.05c0.24-2.43-1.98-5.02-6.6-7.69
						l-4.23-2.44l-31.54,18.33l4.14,2.39c3.76,2.17,6.87,3.49,9.25,3.91C119.1,96.23,121.76,96.1,124.66,95.43"/>
				</g>
				<g>
					<path class="st32" d="M207.48,132.96c-1.04,2.46-3.23,4.68-6.5,6.58c-3.84,2.23-8.51,3.69-13.88,4.34
						c-5.37,0.65-10.89,0.35-16.39-0.89c-5.47-1.23-11.18-3.55-16.95-6.89c-10.16-5.86-15.32-11.14-15.34-15.69
						c-0.03-4.55,2.74-8.77,8.25-12.57l0.32-0.22l19.29,9.82l-0.29,0.22c-2.37,1.81-3.73,3.47-4.03,4.94
						c-0.48,2.37,1,4.57,4.38,6.52c2.52,1.46,5.07,2.25,7.57,2.35c2.51,0.1,4.47-0.27,5.99-1.16c1.44-0.84,2.07-1.93,1.93-3.34
						c-0.14-1.42-2.12-3.87-5.9-7.27c-6.27-5.71-9.68-10.51-10.14-14.25c-0.49-3.79,1.65-7.11,6.35-9.84
						c3.09-1.8,6.96-2.99,11.51-3.54c4.53-0.56,9.46-0.24,14.62,0.93c5.14,1.16,10.9,3.57,17.1,7.15c7.63,4.4,12.1,8.66,13.3,12.63
						c1.21,4-0.95,8.07-6.37,12.11l-0.33,0.24l-19.04-9.78l0.26-0.21c2.12-1.75,3.06-3.38,2.81-4.85c-0.25-1.47-1.65-2.96-4.14-4.4
						c-2.04-1.18-4.01-1.82-5.87-1.92c-1.84-0.09-3.31,0.2-4.51,0.89c-0.84,0.49-1.18,1.15-1.05,2.02c0.08,0.91,1.39,2.48,3.91,4.69
						c6.3,5.63,10.37,10.02,12.08,13.05C208.17,127.69,208.52,130.5,207.48,132.96z M186.9,143.31c5.18-0.63,9.68-2.03,13.38-4.18
						c3.14-1.82,5.24-3.95,6.23-6.31c1-2.36,0.65-5.06-1.03-8.02c-1.69-2.99-5.72-7.34-11.97-12.92c-2.65-2.33-3.98-3.95-4.07-4.97
						c-0.15-1.03,0.3-1.86,1.34-2.47c1.4-0.81,3.18-1.16,5.3-1.05c2.09,0.11,4.27,0.81,6.48,2.08c2.67,1.54,4.15,3.14,4.43,4.76
						c0.27,1.55-0.65,3.24-2.73,5.02l17.58,9.03c5.01-3.83,6.98-7.67,5.85-11.41c-1.15-3.86-5.53-8-13.01-12.32
						c-6.11-3.53-11.75-5.89-16.76-7.02c-4.98-1.13-9.71-1.43-14.06-0.9c-4.35,0.53-8.05,1.67-11,3.38
						c-4.49,2.61-6.53,5.77-6.06,9.39c0.44,3.65,3.8,8.35,9.98,13.98c3.93,3.54,5.9,6.01,6.05,7.56c0.16,1.56-0.6,2.83-2.22,3.77
						c-1.71,1-3.99,1.44-6.76,1.33c-2.76-0.11-5.51-0.96-8.21-2.52c-3.61-2.08-5.18-4.44-4.67-7c0.31-1.51,1.64-3.19,3.95-5
						l-17.81-9.08c-5.13,3.63-7.72,7.65-7.7,11.97c0.03,4.39,5.09,9.53,15.05,15.28c5.68,3.28,11.26,5.56,16.6,6.76
						C176.39,143.65,181.72,143.94,186.9,143.31"/>
				</g>
				<g>
					<path class="st31" d="M214.68,100.56c7.48,4.32,11.86,8.46,13.01,12.32c1.13,3.75-0.84,7.58-5.85,11.41l-17.58-9.03
						c2.08-1.78,3-3.47,2.73-5.02c-0.28-1.61-1.76-3.21-4.43-4.76c-2.21-1.28-4.39-1.98-6.48-2.08c-2.13-0.11-3.91,0.24-5.3,1.05
						c-1.04,0.6-1.49,1.44-1.34,2.47c0.09,1.01,1.42,2.64,4.07,4.97c6.26,5.58,10.28,9.93,11.97,12.92
						c1.68,2.96,2.02,5.66,1.03,8.02c-0.99,2.36-3.09,4.48-6.23,6.31c-3.7,2.15-8.2,3.55-13.38,4.18
						c-5.18,0.63-10.5,0.34-15.83-0.86c-5.34-1.2-10.93-3.48-16.6-6.76c-9.96-5.75-15.02-10.89-15.05-15.28
						c-0.02-4.31,2.57-8.33,7.7-11.97l17.81,9.08c-2.31,1.81-3.64,3.49-3.95,5c-0.51,2.56,1.06,4.92,4.67,7
						c2.7,1.56,5.45,2.41,8.21,2.52c2.78,0.11,5.05-0.33,6.76-1.33c1.62-0.94,2.37-2.22,2.22-3.77c-0.15-1.55-2.12-4.02-6.05-7.56
						c-6.18-5.63-9.54-10.33-9.98-13.98c-0.47-3.62,1.57-6.78,6.06-9.39c2.95-1.71,6.65-2.85,11-3.38c4.34-0.53,9.07-0.23,14.06,0.9
						C202.93,94.67,208.57,97.03,214.68,100.56z"/>
				</g>
			</g>
			<g>
				<path class="st32" d="M109.21,40.02l18.02,10.4L67.49,85.14L49.64,74.83l9.91-30.91L27.93,62.3L9.96,51.92l59.73-34.71
					l17.69,10.21L77.35,58.54L109.21,40.02z M67.49,84.32l58.33-33.9l-16.6-9.58L75.77,60.28L86.3,27.61l-16.6-9.58l-58.33,33.9
					l16.56,9.56l33.2-19.29L50.72,74.64L67.49,84.32"/>
			</g>
		</g>
	</g>
</g>
</svg>
