<?xml version="1.0" encoding="utf-8"?>
<!-- Generator: Adobe Illustrator 24.1.1, SVG Export Plug-In . SVG Version: 6.00 Build 0)  -->
<svg version="1.1" id="Capa_1" xmlns="http://www.w3.org/2000/svg" xmlns:xlink="http://www.w3.org/1999/xlink" x="0px" y="0px"
	 viewBox="0 0 512 512" style="enable-background:new 0 0 512 512;" xml:space="preserve">
<style type="text/css">
	.st0{fill:#00FF7E;}
</style>
<g>
	<g>
		<path class="st0" d="M453.03,361.32c-2.81-1.16-6.04-0.52-8.19,1.63l-82.13,82.13c-2.15,2.15-2.79,5.38-1.63,8.19
			c1.16,2.81,3.9,4.64,6.94,4.64h82.13c4.15,0,7.52-3.36,7.52-7.52v-82.13C457.67,365.23,455.84,362.48,453.03,361.32z
			 M386.17,442.88l56.47-56.47v56.47H386.17z"/>
	</g>
</g>
<g>
	<g>
		<path class="st0" d="M507.36,240.87c-2.81-1.16-6.04-0.52-8.19,1.63L476.66,265V111.97c0-4.15-3.36-7.51-7.52-7.51h-57.74
			l20.96-20.96c0,0,0.01-0.01,0.01-0.01l20.2-20.2c4.33-4.33,6.71-10.08,6.71-16.2s-2.38-11.87-6.71-16.2L429.22,7.53
			c-4.33-4.33-10.08-6.71-16.2-6.71s-11.88,2.38-16.2,6.71l-20.21,20.21l-24.42,24.42l-52.3,52.3H66.62V30.11
			c0-4.15-3.37-7.51-7.51-7.51C26.51,22.6,0,49.11,0,81.7v319.19c0,0.55,0.06,1.1,0.18,1.61c1.04,13.83,7.02,26.68,17.02,36.43
			c10.69,10.42,24.8,16.17,39.73,16.17h229.64l-43.25,43.25c-2.15,2.15-2.79,5.38-1.63,8.19c1.16,2.81,3.9,4.64,6.94,4.64h255.85
			c4.15,0,7.52-3.36,7.52-7.52V247.81C512,244.77,510.17,242.03,507.36,240.87z M407.44,18.16c3.07-3.07,8.08-3.07,11.15,0
			l23.36,23.35c3.07,3.07,3.07,8.08,0,11.15l-14.89,14.89l-34.51-34.51L407.44,18.16z M381.92,43.68l34.51,34.5l-13.79,13.79
			l-34.5-34.5L381.92,43.68z M496.97,332.25h-13.86c-4.15,0-7.52,3.36-7.52,7.52s3.36,7.52,7.52,7.52h13.86v22.65h-13.86
			c-4.15,0-7.52,3.36-7.52,7.52s3.36,7.52,7.52,7.52h13.86v22.64h-13.86c-4.15,0-7.52,3.36-7.52,7.52s3.36,7.52,7.52,7.52h13.86
			v22.65h-13.86c-4.15,0-7.52,3.36-7.52,7.52c0,4.15,3.36,7.52,7.52,7.52h13.86v35.84h-230.2l75.91-75.91
			c2.93-2.94,2.93-7.69,0-10.63c-0.34-0.34-0.7-0.63-1.08-0.89c-2.93-2-6.95-1.71-9.55,0.89l-30.46,30.46H56.93
			c-22.79,0-41.14-17.79-41.86-40.54c0.04-1.43,0.15-2.84,0.33-4.24c0-0.01,0-0.02,0-0.02c0.08-0.67,0.19-1.33,0.3-1.98
			c0.01-0.08,0.03-0.15,0.04-0.23c0.1-0.59,0.22-1.17,0.35-1.75c0.04-0.16,0.07-0.32,0.11-0.48c0.11-0.49,0.24-0.98,0.37-1.47
			c0.07-0.26,0.15-0.52,0.22-0.79c0.11-0.38,0.22-0.76,0.34-1.14c0.12-0.38,0.25-0.75,0.38-1.12c0.09-0.26,0.18-0.52,0.28-0.78
			c0.18-0.49,0.38-0.98,0.58-1.46c0.06-0.14,0.11-0.28,0.17-0.42c0.26-0.6,0.52-1.19,0.81-1.78c0.01-0.02,0.02-0.05,0.03-0.08
			c5.88-12.16,17.18-21.23,30.75-24.05c0.04-0.01,0.08-0.02,0.11-0.02c0.62-0.13,1.25-0.24,1.88-0.34c0.1-0.02,0.21-0.04,0.32-0.05
			c0.57-0.09,1.15-0.15,1.72-0.22c0.16-0.02,0.32-0.04,0.49-0.06c0.56-0.06,1.12-0.09,1.68-0.13c0.18-0.01,0.36-0.03,0.53-0.04
			c0.74-0.04,1.48-0.06,2.22-0.06c4.15,0,7.52-3.36,7.52-7.52v-54.49c0-4.15-3.37-7.52-7.51-7.52s-7.51,3.36-7.51,7.52v47.45
			c-12.69,1.61-24.47,7.27-33.76,16.33c-0.98,0.95-1.9,1.95-2.81,2.95V81.7c0-21.74,15.83-39.86,36.56-43.44v73.71v152.78v0
			c0,4.15,3.37,7.52,7.51,7.52s7.51-3.36,7.51-7.52v0V119.49h218.24l-41.54,41.54c-2.93,2.94-2.93,7.69,0,10.63
			c2.93,2.93,7.69,2.93,10.63,0l54.37-54.37c0,0,0,0,0.01,0l49.18-49.19l34.5,34.51l-4.05,4.05c0,0-0.01,0.01-0.01,0.01
			L236.42,258.19l-34.5-34.5l29.87-29.87c2.93-2.94,2.93-7.69,0-10.63c-2.93-2.93-7.69-2.93-10.63,0l-35.18,35.18
			c-0.19,0.19-0.36,0.39-0.53,0.59c-0.05,0.07-0.1,0.14-0.16,0.21c-0.11,0.14-0.21,0.28-0.31,0.43c-0.05,0.09-0.1,0.17-0.16,0.26
			c-0.08,0.14-0.16,0.28-0.24,0.43c-0.05,0.09-0.09,0.19-0.13,0.29c-0.07,0.15-0.13,0.3-0.19,0.45c-0.02,0.05-0.05,0.1-0.07,0.16
			l-14.64,41.48l-9.98,28.28c-0.13,0.38-0.23,0.76-0.3,1.14h-24.99c-4.15,0-7.51,3.36-7.51,7.52s3.37,7.52,7.51,7.52h208.11
			c4.15,0,7.52-3.36,7.52-7.52s-3.36-7.52-7.52-7.52H193.09l45.83-16.18c0.04-0.01,0.07-0.03,0.11-0.05
			c0.18-0.07,0.35-0.14,0.53-0.22c0.07-0.03,0.14-0.06,0.21-0.1c0.18-0.09,0.36-0.19,0.53-0.3c0.06-0.03,0.11-0.07,0.17-0.1
			c0.18-0.12,0.36-0.24,0.53-0.38c0.04-0.03,0.09-0.06,0.13-0.1c0.21-0.17,0.41-0.35,0.61-0.54l154.64-154.64h65.26v160.55
			l-107.5,107.5c-2.93,2.94-2.93,7.69,0,10.63c0.18,0.18,0.37,0.36,0.57,0.52c1.38,1.12,3.06,1.68,4.74,1.68s3.37-0.56,4.74-1.68
			c0.2-0.16,0.39-0.33,0.57-0.52c0,0,0,0,0,0l132.2-132.2V332.25z M222.68,265.7l-21.53,7.6l-14.34-14.34l7.6-21.53L222.68,265.7z"
			/>
	</g>
</g>
</svg>
