<?xml version="1.0" encoding="utf-8"?>
<!-- Generator: Adobe Illustrator 24.1.1, SVG Export Plug-In . SVG Version: 6.00 Build 0)  -->
<svg version="1.1" id="b6117b06-2b45-45bc-b789-4a82ab6612dd"
	 xmlns="http://www.w3.org/2000/svg" xmlns:xlink="http://www.w3.org/1999/xlink" x="0px" y="0px" viewBox="0 0 1139.17 654.54"
	 style="enable-background:new 0 0 1139.17 654.54;" xml:space="preserve">
<style type="text/css">
	.st0{fill:#F2F2F2;}
	.st1{fill:#00FF7E;}
	.st2{fill:#0B2B51;}
	.st3{opacity:0.1;enable-background:new    ;}
</style>
<circle class="st0" cx="246.83" cy="521.76" r="59.24"/>
<circle class="st1" cx="256.46" cy="513.09" r="59.24"/>
<rect x="304.17" y="447.54" class="st2" width="733" height="2"/>
<path class="st2" d="M683.79,18.65H423.62v-5.36H305.65v5.36H44.41c-9.72,0-17.6,7.88-17.6,17.6c0,0,0,0,0,0V392.5
	c0,9.72,7.88,17.6,17.6,17.6h639.38c9.72,0,17.6-7.88,17.6-17.6V36.25C701.39,26.53,693.51,18.65,683.79,18.65L683.79,18.65z"/>
<rect x="50.41" y="49.75" class="st1" width="627.39" height="353.91"/>
<circle class="st1" cx="363.57" cy="33.67" r="6.43"/>
<polygon class="st3" points="498.37,403.67 50.41,403.67 50.41,49.75 "/>
<circle class="st0" cx="148.57" cy="316.88" r="60.31"/>
<rect x="509.95" y="240.62" class="st2" width="58.61" height="12.25"/>
<rect x="439.1" y="145.28" class="st2" width="200.31" height="5.25"/>
<rect x="439.1" y="161.9" class="st2" width="200.31" height="5.25"/>
<rect x="439.1" y="178.52" class="st2" width="200.31" height="5.25"/>
<rect x="439.1" y="195.14" class="st2" width="200.31" height="5.25"/>
<rect x="439.1" y="211.76" class="st2" width="200.31" height="5.25"/>
<rect x="614.92" y="56.93" class="st0" width="24.49" height="24.49"/>
<path class="st2" d="M650.78,92.8h-29.74V63.06h29.74V92.8z M622.33,91.5h27.15V64.35h-27.15V91.5z"/>
<path class="st2" d="M719.01,397.23h-61.23v-4.41c0-0.48-0.39-0.87-0.87-0.87l0,0h-20.99c-0.48,0-0.87,0.39-0.87,0.87l0,0v4.41
	h-13.12v-4.41c0-0.48-0.39-0.87-0.87-0.87h0h-20.99c-0.48,0-0.87,0.39-0.87,0.87l0,0v4.41h-13.12v-4.41c0-0.48-0.39-0.87-0.87-0.87
	l0,0h-20.99c-0.48,0-0.87,0.39-0.87,0.87l0,0v4.41h-13.12v-4.41c0-0.48-0.39-0.87-0.87-0.87l0,0h-20.99c-0.48,0-0.87,0.39-0.87,0.87
	l0,0v4.41h-13.12v-4.41c0-0.48-0.39-0.87-0.87-0.87l0,0h-20.99c-0.48,0-0.87,0.39-0.87,0.87v0v4.41h-13.12v-4.41
	c0-0.48-0.39-0.87-0.87-0.87h0H456.6c-0.48,0-0.87,0.39-0.87,0.87l0,0v4.41H442.6v-4.41c0-0.48-0.39-0.87-0.87-0.87h0H277.28
	c-0.48,0-0.87,0.39-0.87,0.87l0,0v4.41h-13.12v-4.41c0-0.48-0.39-0.87-0.87-0.87h0h-20.99c-0.48,0-0.87,0.39-0.87,0.87v0v4.41
	h-13.12v-4.41c0-0.48-0.39-0.87-0.87-0.87h0h-20.99c-0.48,0-0.87,0.39-0.87,0.87c0,0,0,0,0,0v4.41h-13.12v-4.41
	c0-0.48-0.39-0.87-0.87-0.87c0,0,0,0,0,0h-20.99c-0.48,0-0.87,0.39-0.87,0.87l0,0v4.41H155.7v-4.41c0-0.48-0.39-0.87-0.87-0.87
	c0,0,0,0,0,0h-20.99c-0.48,0-0.87,0.39-0.87,0.87c0,0,0,0,0,0v4.41h-13.12v-4.41c0-0.48-0.39-0.87-0.87-0.87c0,0,0,0,0,0H97.97
	c-0.48,0-0.87,0.39-0.87,0.87c0,0,0,0,0,0v4.41H83.97v-4.41c0-0.48-0.39-0.87-0.87-0.87c0,0,0,0,0,0H62.1
	c-0.48,0-0.87,0.39-0.87,0.87v0v4.41H20.99C9.4,397.23,0,406.63,0,418.22v9.49c0,11.59,9.4,20.99,20.99,20.99h698.01
	c11.59,0,20.99-9.4,20.99-20.99v-9.49C740,406.63,730.6,397.23,719.01,397.23z"/>
<path class="st2" d="M163.17,354.54c-41.97,0-76-34.03-76-76s34.03-76,76-76s76,34.03,76,76
	C239.12,320.5,205.13,354.5,163.17,354.54z M163.17,204.54c-40.87,0-74,33.13-74,74s33.13,74,74,74s74-33.13,74-74
	C237.13,237.69,204.02,204.59,163.17,204.54z"/>
<rect x="586.17" y="32.54" class="st2" width="255" height="2"/>
<rect x="406.17" y="560.54" class="st2" width="733" height="2"/>
<rect x="192.67" y="652.54" class="st2" width="255" height="2"/>
<rect x="471" y="550" class="st1" width="28" height="28"/>
<path class="st2" d="M516,562h-34v-34h34V562z M483.48,560.52h31.04v-31.04h-31.04V560.52z"/>
<rect x="796" y="22" class="st1" width="28" height="28"/>
<path class="st2" d="M841,34h-34V0h34V34z M808.48,32.52h31.04V1.48h-31.04V32.52z"/>
<rect x="1078" y="550" class="st1" width="28" height="28"/>
<path class="st2" d="M1123,562h-34v-34h34V562z M1090.48,560.52h31.04v-31.04h-31.04V560.52z"/>
<path class="st2" d="M1057.17,231.96h-2.38V166.8c0-20.83-16.89-37.71-37.71-37.71h0H879.03c-20.83,0-37.71,16.88-37.71,37.71
	c0,0,0,0,0,0v357.48c0,20.83,16.89,37.71,37.71,37.71c0,0,0,0,0,0h138.05c20.83,0,37.71-16.88,37.71-37.71c0,0,0,0,0,0V278.34h2.38
	L1057.17,231.96z"/>
<path class="st1" d="M1046.76,169.01v356.96c0,15.56-12.61,28.17-28.16,28.17H879.88c-15.56,0-28.16-12.61-28.16-28.17V169.01
	c0-15.55,12.61-28.16,28.16-28.16h16.83c-2.79,6.84,0.5,14.65,7.34,17.44c1.6,0.65,3.32,0.99,5.05,0.99h79.09
	c7.39,0,13.38-5.99,13.38-13.38c0-1.73-0.34-3.45-0.99-5.05h18.02C1034.15,140.85,1046.76,153.46,1046.76,169.01z"/>
<rect x="928.58" y="376.22" class="st2" width="41.32" height="12.25"/>
<rect x="878.62" y="280.87" class="st2" width="141.24" height="5.25"/>
<rect x="878.62" y="297.49" class="st2" width="141.24" height="5.25"/>
<rect x="878.62" y="314.11" class="st2" width="141.24" height="5.25"/>
<rect x="878.62" y="330.73" class="st2" width="141.24" height="5.25"/>
<rect x="878.62" y="347.35" class="st2" width="141.24" height="5.25"/>
<rect x="929.68" y="211.18" class="st0" width="24.49" height="24.49"/>
<path class="st2" d="M939.06,217.3v29.74h29.74V217.3H939.06z M967.51,245.75h-27.16v-27.16h27.16V245.75z"/>
<path class="st3" d="M1046.76,487.85v38.12c0,15.56-12.61,28.17-28.16,28.17H879.88c-15.56,0-28.16-12.61-28.16-28.17V333.76
	l116.87,92.33l2,1.58l21.74,17.17l2.03,1.61L1046.76,487.85z"/>
<circle class="st0" cx="937.24" cy="498.71" r="43.87"/>
<path class="st2" d="M320.17,654.54c-48.05,0-87-38.95-87-87s38.95-87,87-87s87,38.95,87,87
	C407.12,615.57,368.2,654.49,320.17,654.54z M320.17,482.54c-46.94,0-85,38.06-85,85s38.06,85,85,85s85-38.06,85-85
	C405.12,520.62,367.09,482.6,320.17,482.54z"/>
<path class="st2" d="M950.17,532.54c-30.38,0-55-24.62-55-55s24.62-55,55-55s55,24.62,55,55
	C1005.14,507.9,980.53,532.51,950.17,532.54z M950.17,424.54c-29.27,0-53,23.73-53,53s23.73,53,53,53s53-23.73,53-53l0,0
	C1003.14,448.29,979.43,424.58,950.17,424.54z"/>
</svg>
